<?xml version="1.0" encoding="UTF-8"?>
<!DOCTYPE svg PUBLIC "-//W3C//DTD SVG 1.1//EN" "http://www.w3.org/Graphics/SVG/1.1/DTD/svg11.dtd">
<!-- Creator: CorelDRAW -->
<svg xmlns="http://www.w3.org/2000/svg" xml:space="preserve" width="33.6016mm" height="13.1117mm" style="shape-rendering:geometricPrecision; text-rendering:geometricPrecision; image-rendering:optimizeQuality; fill-rule:evenodd; clip-rule:evenodd"
viewBox="0 0 6.27869 2.45001"
 xmlns:xlink="http://www.w3.org/1999/xlink">
 <defs>
  <style type="text/css">
   <![CDATA[
    .fil3 {fill:#75C5F0}
    .fil4 {fill:white;fill-rule:nonzero}
    .fil1 {fill:#007CC3;fill-opacity:0.501961}
    .fil2 {fill:#0093DD;fill-opacity:0.501961}
    .fil0 {fill:#75C5F0;fill-opacity:0.501961}
   ]]>
  </style>
 </defs>
 <g id="Layer_x0020_1">
  <metadata id="CorelCorpID_0Corel-Layer"/>
  <g id="_279761224">
   <path id="_306720752" class="fil0" d="M0.789302 0.235888c0.435862,0 0.789321,0.353458 0.789321,0.789302 0,0.435862 -0.353458,0.789321 -0.789321,0.789321 -0.435844,0 -0.789302,-0.353458 -0.789302,-0.789321 0,-0.435844 0.353458,-0.789302 0.789302,-0.789302z"/>
   <path id="_279763456" class="fil1" d="M1.24445 0.871388c0.435862,0 0.789321,0.353458 0.789321,0.789321 0,0.435844 -0.353458,0.789302 -0.789321,0.789302 -0.435862,0 -0.789302,-0.353458 -0.789302,-0.789302 0,-0.435862 0.35344,-0.789321 0.789302,-0.789321z"/>
   <path id="_279758008" class="fil0" d="M1.68014 0c0.435862,0 0.789321,0.353458 0.789321,0.789321 0,0.435862 -0.353458,0.789302 -0.789321,0.789302 -0.435862,0 -0.789302,-0.35344 -0.789302,-0.789302 0,-0.435862 0.35344,-0.789321 0.789302,-0.789321z"/>
   <path id="_279751264" class="fil2" d="M2.12955 0.517388c0.435844,0 0.789302,0.353458 0.789302,0.789321 0,0.435844 -0.353458,0.789302 -0.789302,0.789302 -0.435862,0 -0.789321,-0.353458 -0.789321,-0.789302 0,-0.435862 0.353458,-0.789321 0.789321,-0.789321z"/>
  </g>
  <g id="_280031952">
   <circle id="_280021632" class="fil3" cx="4.81749" cy="1.86085" r="0.0674563"/>
   <circle id="_280026336" class="fil3" cx="5.16593" cy="1.86085" r="0.0674563"/>
   <circle id="_280020312" class="fil3" cx="5.51435" cy="1.86085" r="0.0674563"/>
   <circle id="_280027440" class="fil3" cx="5.86279" cy="1.86085" r="0.0674563"/>
   <circle id="_280020624" class="fil3" cx="6.21122" cy="1.86085" r="0.0674563"/>
  </g>
  <path class="fil4" d="M3.58341 0.991051c-0.00467142,-0.0370537 -0.00904387,-0.0702955 -0.0128371,-0.0994639 -0.00377451,-0.0288694 -0.00728742,-0.0554217 -0.0105014,-0.0790404 -0.00319525,-0.0236374 -0.00582993,-0.0457986 -0.00816564,-0.0665023 -0.0198255,-0.0061289 -0.0417064,-0.0122578 -0.0653251,-0.0183867 -0.0239177,-0.00611022 -0.0489939,-0.0110806 -0.0755462,-0.0154531 -0.0268326,-0.00407348 -0.0545435,-0.0061289 -0.0831326,-0.00640919 -0.0574585,0.000280285 -0.108788,0.0087449 -0.153989,0.0250762 -0.0454996,0.0163313 -0.0840108,0.0393707 -0.115795,0.0682588 -0.031803,0.0291683 -0.0557207,0.0627091 -0.0726312,0.100921 -0.0166303,0.0379132 -0.0250762,0.0787415 -0.0250762,0.122485 0.000280285,0.0385112 0.00640919,0.0729302 0.018368,0.103556 0.0119588,0.0306258 0.0280098,0.0580377 0.0481343,0.0825347 0.0204048,0.0242166 0.0431639,0.0457986 0.0685391,0.0650449 0.0250762,0.0192463 0.0513296,0.0367547 0.0784612,0.0522078 0.0271129,0.0154531 0.0533663,0.0300466 0.0787415,0.0431639 0.0434629,0.0230581 0.0819554,0.0463779 0.115216,0.0702955 0.0332418,0.0239177 0.0592149,0.0507503 0.0781622,0.0804979 0.018966,0.0300466 0.0285891,0.0653438 0.0288881,0.106471 0,0.0417064 -0.00816564,0.0778819 -0.0242166,0.108209 -0.016051,0.0306258 -0.0390904,0.0542445 -0.0694173,0.0711738 -0.0300466,0.0166116 -0.0665023,0.0250762 -0.109386,0.0253752 -0.0355775,-0.000298971 -0.0676608,-0.00700713 -0.095951,-0.0195452 -0.0282901,-0.0128371 -0.053086,-0.0297476 -0.074967,-0.0507503 -0.021582,-0.0213017 -0.040249,-0.0446401 -0.056001,-0.0700152 -0.0154531,-0.0253752 -0.0285704,-0.0510306 -0.0390718,-0.0767047 -0.0105014,-0.0259544 -0.018667,-0.0495731 -0.0244969,-0.071753l-0.0525068 0.0140143c0.002616,0.0227405 0.0061289,0.0478353 0.0099221,0.0755275 0.00379319,0.0274306 0.00786667,0.0548425 0.0125381,0.0816751 0.00437245,0.0271316 0.0087449,0.0513296 0.0131173,0.0723323 0.00409216,0.0213017 0.00816564,0.0370537 0.0116786,0.0469571 0.00932415,0.00437245 0.021283,0.0099221 0.0355775,0.0163313 0.0145748,0.00642787 0.0329615,0.0134163 0.0554217,0.0204234 0.0218622,0.00728742 0.0472374,0.0134163 0.0758265,0.018368 0.0288694,0.00497039 0.0606724,0.00758639 0.0956707,0.00788536 0.0592149,-0.000298971 0.11316,-0.00904387 0.161594,-0.0262534 0.0481156,-0.0172095 0.0898221,-0.0408282 0.12482,-0.071454 0.034718,-0.0306258 0.0615506,-0.0662221 0.0805166,-0.106751 0.0189473,-0.0405479 0.0282901,-0.0845901 0.0285704,-0.131547 -0.000579256,-0.0478353 -0.00962313,-0.0898408 -0.0271129,-0.125717 -0.0178075,-0.0355775 -0.0411272,-0.0670816 -0.0705945,-0.0939142 -0.0294486,-0.0268326 -0.0621299,-0.0507503 -0.0980064,-0.071753 -0.0355775,-0.0210027 -0.0720333,-0.0405479 -0.108788,-0.058617 -0.0466581,-0.0233384 -0.0866268,-0.0469571 -0.119289,-0.0705945 -0.0329615,-0.0233384 -0.0580377,-0.0498721 -0.0752472,-0.0790404 -0.0172095,-0.0291683 -0.0259731,-0.0638677 -0.0259731,-0.104117 0,-0.0242166 0.00379319,-0.0478353 0.0116786,-0.0702955 0.00758639,-0.0224602 0.0192463,-0.0425847 0.0349983,-0.0603734 0.0154531,-0.0178075 0.0352973,-0.0320833 0.058916,-0.0423044 0.0236187,-0.0105014 0.0516285,-0.015752 0.0834129,-0.0160323 0.037334,0.000280285 0.069137,0.00728742 0.0953904,0.0207037 0.0262347,0.0137153 0.0481156,0.0317843 0.0653251,0.0542445 0.0175085,0.0224602 0.0317843,0.0475551 0.0428836,0.074967 0.0110806,0.0271316 0.0201245,0.0548238 0.0274119,0.0828336l0.0542445 -0.0087449z"/>
  <path class="fil4" d="M4.6344 1.84861c-0.0189473,-0.00554965 -0.0384738,-0.0145748 -0.0585796,-0.0265337 -0.0198255,-0.0119588 -0.0411085,-0.0300279 -0.063849,-0.0539269 -0.0136966,-0.0148738 -0.0273932,-0.0306071 -0.0408095,-0.0472187 -0.0136966,-0.0166303 -0.0282714,-0.0361568 -0.0443037,-0.0582993 -0.0157333,-0.0221612 -0.0341014,-0.0486949 -0.0548051,-0.0798813 -0.0131173,-0.0198255 -0.0271129,-0.0413888 -0.041968,-0.0647085 -0.0148738,-0.0230208 -0.0291497,-0.0463405 -0.0434442,-0.0696602 -0.0142759,-0.0230394 -0.0273932,-0.0449017 -0.039352,-0.0647272 -0.0116599,-0.0201058 -0.0215633,-0.0373153 -0.0291497,-0.0510119 0.0428463,-0.018368 0.0810398,-0.0413888 0.114263,-0.0685017 0.0332418,-0.0273932 0.0594765,-0.0600371 0.0787228,-0.0979317 0.0189473,-0.0378946 0.0288507,-0.082217 0.0291497,-0.132631 0,-0.0349983 -0.00497039,-0.0670629 -0.0148738,-0.0959136 -0.00962313,-0.0291497 -0.0233197,-0.0545061 -0.0408095,-0.0769476 -0.0174898,-0.0224602 -0.0378946,-0.0411085 -0.0615133,-0.0562626 -0.0218622,-0.0145748 -0.0466395,-0.0262347 -0.0737524,-0.0349796 -0.0273932,-0.0087449 -0.0582993,-0.0148738 -0.0929799,-0.0189473 -0.0346806,-0.00379319 -0.0743316,-0.00554965 -0.118355,-0.00554965l-0.442496 0 0 0.0507316c0.0335221,0.00233571 0.0600558,0.00553096 0.0801616,0.00962313 0.0198255,0.00437245 0.0346993,0.0116599 0.0446027,0.0221425 0.0099221,0.0107816 0.0166116,0.0265337 0.0195265,0.0478167 0.00321394,0.0212643 0.00467142,0.0501337 0.00437245,0.0865708l0 0.697854c0.000298971,0.0367174 -0.00115851,0.066166 -0.00465273,0.0880282 -0.00321394,0.0218622 -0.0102024,0.0384738 -0.0207037,0.0495544 -0.0104827,0.0110806 -0.0259357,0.0189473 -0.0469384,0.0236187 -0.020984,0.00437245 -0.0486762,0.00786667 -0.0833568,0.0102024l0 0.0507129 0.470487 0 0 -0.0507129c-0.0344003,-0.00233571 -0.0618122,-0.00582993 -0.082217,-0.0102024 -0.020685,-0.00467142 -0.0361381,-0.0125381 -0.0466395,-0.0236187 -0.0102024,-0.0110806 -0.0171908,-0.0276922 -0.0204048,-0.0495544 -0.00349422,-0.0218622 -0.00495171,-0.0513109 -0.00465273,-0.0880282l0 -0.274605 0.0507129 0c0.0282714,0 0.0510119,0.00233571 0.0688007,0.00728742 0.0174898,0.00497039 0.0320646,0.0128371 0.0437245,0.0233197 0.0116599,0.0105014 0.0224415,0.024198 0.0326439,0.0411085 0.0169105,0.0288507 0.0346806,0.0591776 0.0533476,0.0909432 0.0186483,0.0320646 0.0375956,0.063849 0.0571221,0.0956146 0.0195452,0.0314854 0.039352,0.0615133 0.0591776,0.0897847 0.0189473,0.0279911 0.0384738,0.0515912 0.058019,0.0711177 0.0198068,0.0195452 0.0408095,0.0355775 0.0638303,0.0480969 0.0227405,0.0125381 0.0483959,0.0218622 0.0772466,0.0285704 0.0285704,0.00670816 0.0612143,0.0110806 0.0982306,0.0131173 0.00962313,0.000878227 0.0195452,0.00145748 0.0297476,0.00145748 0.0102024,0.000298971 0.0201058,0.000298971 0.0297289,0.000298971l0.00698844 -0.0472187zm-0.729321 -0.521218l0 -0.431994c0,-0.0224415 0.00145748,-0.039352 0.00407348,-0.0507129 0.00291497,-0.0113796 0.00728742,-0.0195452 0.0134163,-0.0244969 0.00698844,-0.00525068 0.0180691,-0.00962313 0.0332231,-0.0128184 0.0151541,-0.00291497 0.0349796,-0.00467142 0.0594578,-0.00467142 0.0317843,-0.000280285 0.0623915,0.00437245 0.0918401,0.0136966 0.0291497,0.00962313 0.0553844,0.0244969 0.0787041,0.0449017 0.0233197,0.0204048 0.0416691,0.0472187 0.0553844,0.0801616 0.0133976,0.0329429 0.0204048,0.0728742 0.020685,0.120093 0.000298971,0.0469384 -0.00698844,0.0883272 -0.0221425,0.124185 -0.0148738,0.0355589 -0.0384925,0.066465 -0.0705571,0.0926997 -0.0215633,0.0171908 -0.047499,0.0297289 -0.0778259,0.0375956 -0.0303082,0.00786667 -0.0667453,0.0116599 -0.109311,0.0113609l-0.0769476 0z"/>
 </g>
</svg>
