<?xml version="1.0" encoding="UTF-8"?>
<!DOCTYPE svg PUBLIC "-//W3C//DTD SVG 1.1//EN" "http://www.w3.org/Graphics/SVG/1.1/DTD/svg11.dtd">
<!-- Creator: CorelDRAW -->
<svg xmlns="http://www.w3.org/2000/svg" xml:space="preserve" width="15.6208mm" height="13.1117mm" style="shape-rendering:geometricPrecision; text-rendering:geometricPrecision; image-rendering:optimizeQuality; fill-rule:evenodd; clip-rule:evenodd"
viewBox="0 0 1.35692 1.13897"
 xmlns:xlink="http://www.w3.org/1999/xlink">
 <defs>
  <style type="text/css">
   <![CDATA[
    .fil1 {fill:#007CC3;fill-opacity:0.501961}
    .fil2 {fill:#0093DD;fill-opacity:0.501961}
    .fil0 {fill:#75C5F0;fill-opacity:0.501961}
   ]]>
  </style>
 </defs>
 <g id="Layer_x0020_1">
  <metadata id="CorelCorpID_0Corel-Layer"/>
  <g id="_279761224">
   <path id="_306720752" class="fil0" d="M0.366933 0.10966c0.202625,0 0.366941,0.164317 0.366941,0.366933 0,0.202625 -0.164317,0.366941 -0.366941,0.366941 -0.202616,0 -0.366933,-0.164317 -0.366933,-0.366941 0,-0.202616 0.164317,-0.366933 0.366933,-0.366933z"/>
   <path id="_279763456" class="fil1" d="M0.578522 0.405093c0.202625,0 0.366941,0.164317 0.366941,0.366941 0,0.202616 -0.164317,0.366933 -0.366941,0.366933 -0.202625,0 -0.366933,-0.164317 -0.366933,-0.366933 0,-0.202625 0.164308,-0.366941 0.366933,-0.366941z"/>
   <path id="_279758008" class="fil0" d="M0.781069 0c0.202625,0 0.366941,0.164317 0.366941,0.366941 0,0.202625 -0.164317,0.366933 -0.366941,0.366933 -0.202625,0 -0.366933,-0.164308 -0.366933,-0.366933 0,-0.202625 0.164308,-0.366941 0.366933,-0.366941z"/>
   <path id="_279751264" class="fil2" d="M0.989991 0.240525c0.202616,0 0.366933,0.164317 0.366933,0.366941 0,0.202616 -0.164317,0.366933 -0.366933,0.366933 -0.202625,0 -0.366941,-0.164317 -0.366941,-0.366933 0,-0.202625 0.164317,-0.366941 0.366941,-0.366941z"/>
  </g>
 </g>
</svg>
