<?xml version="1.0" encoding="UTF-8"?>
<!DOCTYPE svg PUBLIC "-//W3C//DTD SVG 1.1//EN" "http://www.w3.org/Graphics/SVG/1.1/DTD/svg11.dtd">
<!-- Creator: CorelDRAW -->
<svg xmlns="http://www.w3.org/2000/svg" xml:space="preserve" width="33.138mm" height="13.1117mm" style="shape-rendering:geometricPrecision; text-rendering:geometricPrecision; image-rendering:optimizeQuality; fill-rule:evenodd; clip-rule:evenodd"
viewBox="0 0 6.10663 2.41621"
 xmlns:xlink="http://www.w3.org/1999/xlink">
 <defs>
  <style type="text/css">
   <![CDATA[
    .fil3 {fill:#75C5F0}
    .fil4 {fill:white;fill-rule:nonzero}
    .fil1 {fill:#007CC3;fill-opacity:0.501961}
    .fil2 {fill:#0093DD;fill-opacity:0.501961}
    .fil0 {fill:#75C5F0;fill-opacity:0.501961}
   ]]>
  </style>
 </defs>
 <g id="Layer_x0020_1">
  <metadata id="CorelCorpID_0Corel-Layer"/>
  <g id="_279761224">
   <path id="_306720752" class="fil0" d="M0.778412 0.232633c0.429849,0 0.77843,0.348582 0.77843,0.778412 0,0.429849 -0.348582,0.77843 -0.77843,0.77843 -0.42983,0 -0.778412,-0.348582 -0.778412,-0.77843 0,-0.42983 0.348582,-0.778412 0.778412,-0.778412z"/>
   <path id="_279763456" class="fil1" d="M1.22728 0.859366c0.429849,0 0.77843,0.348582 0.77843,0.77843 0,0.42983 -0.348582,0.778412 -0.77843,0.778412 -0.429849,0 -0.778412,-0.348582 -0.778412,-0.778412 0,-0.429849 0.348563,-0.77843 0.778412,-0.77843z"/>
   <path id="_279758008" class="fil0" d="M1.65696 0c0.429849,0 0.77843,0.348582 0.77843,0.77843 0,0.429849 -0.348582,0.778412 -0.77843,0.778412 -0.429849,0 -0.778412,-0.348563 -0.778412,-0.778412 0,-0.429849 0.348563,-0.77843 0.778412,-0.77843z"/>
   <path id="_279751264" class="fil2" d="M2.10017 0.510249c0.42983,0 0.778412,0.348582 0.778412,0.77843 0,0.42983 -0.348582,0.778412 -0.778412,0.778412 -0.429849,0 -0.77843,-0.348582 -0.77843,-0.778412 0,-0.429849 0.348582,-0.77843 0.77843,-0.77843z"/>
  </g>
  <g id="_280031952">
   <circle id="_280021632" class="fil3" cx="4.66559" cy="1.83518" r="0.0665256"/>
   <circle id="_280026336" class="fil3" cx="5.00922" cy="1.83518" r="0.0665256"/>
   <circle id="_280020312" class="fil3" cx="5.35283" cy="1.83518" r="0.0665256"/>
   <circle id="_280027440" class="fil3" cx="5.69647" cy="1.83518" r="0.0665256"/>
   <circle id="_280020624" class="fil3" cx="6.0401" cy="1.83518" r="0.0665256"/>
  </g>
  <path class="fil4" d="M3.53397 0.977378c-0.00460697,-0.0365425 -0.00891909,-0.0693257 -0.01266,-0.0980916 -0.00372243,-0.0284711 -0.00718687,-0.0546571 -0.0103565,-0.0779499 -0.00315117,-0.0233113 -0.0057495,-0.0451667 -0.00805298,-0.0655848 -0.019552,-0.00604434 -0.041131,-0.0120887 -0.0644239,-0.018133 -0.0235877,-0.00602592 -0.0483179,-0.0109277 -0.0745039,-0.0152399 -0.0264624,-0.00401728 -0.053791,-0.00604434 -0.0819856,-0.00632076 -0.0566657,0.000276418 -0.107287,0.00862425 -0.151864,0.0247302 -0.0448719,0.016106 -0.0828517,0.0388275 -0.114198,0.067317 -0.0313642,0.0287659 -0.0549519,0.0618439 -0.0716292,0.099529 -0.0164008,0.0373902 -0.0247302,0.0776551 -0.0247302,0.120795 0.000276418,0.0379799 0.00632076,0.071924 0.0181146,0.102127 0.0117938,0.0302033 0.0276234,0.057237 0.0474702,0.0813959 0.0201232,0.0238825 0.0425684,0.0451667 0.0675934,0.0641474 0.0247302,0.0189807 0.0506214,0.0362476 0.0773786,0.0514875 0.0267388,0.0152399 0.05263,0.029632 0.0776551,0.0425684 0.0428632,0.02274 0.0808247,0.045738 0.113626,0.0693257 0.0327832,0.0235877 0.0583979,0.0500501 0.0770838,0.0793873 0.0187043,0.029632 0.0281946,0.0644423 0.0284895,0.105002 0,0.041131 -0.00805298,0.0768074 -0.0238825,0.106716 -0.0158295,0.0302033 -0.0385511,0.0534961 -0.0684596,0.0701918 -0.029632,0.0163824 -0.0655848,0.0247302 -0.107877,0.0250251 -0.0350867,-0.000294846 -0.0667273,-0.00691045 -0.0946271,-0.0192756 -0.0278998,-0.01266 -0.0523536,-0.0293372 -0.0739326,-0.0500501 -0.0212842,-0.0210078 -0.0396936,-0.0440242 -0.0552283,-0.0690492 -0.0152399,-0.0250251 -0.0281762,-0.0503265 -0.0385327,-0.0756464 -0.0103565,-0.0255963 -0.0184094,-0.0488892 -0.0241589,-0.070763l-0.0517823 0.0138209c0.0025799,0.0224267 0.00604434,0.0471754 0.0097852,0.0744855 0.00374086,0.0270521 0.00775814,0.0540858 0.0123651,0.0805482 0.00431212,0.0267573 0.00862425,0.0506214 0.0129364,0.0713343 0.0040357,0.0210078 0.00805298,0.0365425 0.0115174,0.0463092 0.00919551,0.00431212 0.0209893,0.0097852 0.0350867,0.016106 0.0143737,0.00633919 0.0325068,0.0132312 0.0546571,0.0201417 0.0215606,0.00718687 0.0465857,0.0132312 0.0747803,0.0181146 0.0284711,0.00490181 0.0598353,0.00748172 0.0943507,0.00777656 0.0583979,-0.000294846 0.111599,-0.00891909 0.159364,-0.0258912 0.0474518,-0.0169721 0.0885828,-0.0402649 0.123098,-0.0704682 0.034239,-0.0302033 0.0607014,-0.0653084 0.0794057,-0.105278 0.0186859,-0.0399885 0.0278998,-0.083423 0.0281762,-0.129732 -0.000571264,-0.0471754 -0.00949036,-0.0886012 -0.0267388,-0.123983 -0.0175618,-0.0350867 -0.0405598,-0.0661561 -0.0696205,-0.0926185 -0.0290423,-0.0264624 -0.0612727,-0.0500501 -0.0966542,-0.070763 -0.0350867,-0.0207129 -0.0710395,-0.0399885 -0.107287,-0.0578082 -0.0460144,-0.0230164 -0.0854316,-0.0463092 -0.117644,-0.0696205 -0.0325068,-0.0230164 -0.057237,-0.049184 -0.0742091,-0.0779499 -0.0169721,-0.0287659 -0.0256147,-0.0629865 -0.0256147,-0.10268 0,-0.0238825 0.00374086,-0.0471754 0.0115174,-0.0693257 0.00748172,-0.0221503 0.0189807,-0.0419971 0.0345154,-0.0595405 0.0152399,-0.0175618 0.0348103,-0.0316407 0.0581031,-0.0417207 0.0232928,-0.0103565 0.0509162,-0.0155347 0.082262,-0.0158111 0.0368189,0.000276418 0.0681831,0.00718687 0.0940743,0.0204181 0.0258727,0.0135261 0.0474518,0.0313458 0.0644239,0.0534961 0.0172669,0.0221503 0.0313458,0.0468989 0.042292,0.0739326 0.0109277,0.0267573 0.0198468,0.0540674 0.0270337,0.0816908l0.0534961 -0.00862425z"/>
  <path class="fil4" d="M4.48503 1.82311c-0.0186859,-0.00547308 -0.037943,-0.0143737 -0.0577714,-0.0261676 -0.019552,-0.0117938 -0.0405413,-0.0296136 -0.062968,-0.0531828 -0.0135076,-0.0146686 -0.0270153,-0.0301849 -0.0402465,-0.0465672 -0.0135076,-0.0164008 -0.0278814,-0.0356579 -0.0436925,-0.057495 -0.0155163,-0.0218555 -0.0336309,-0.048023 -0.054049,-0.0787792 -0.0129364,-0.019552 -0.0267388,-0.0408177 -0.041389,-0.0638157 -0.0146686,-0.0227031 -0.0287475,-0.0457011 -0.0428448,-0.0686991 -0.0140789,-0.0227216 -0.0270153,-0.0442822 -0.0388091,-0.0638342 -0.011499,-0.0198284 -0.0212658,-0.0368005 -0.0287475,-0.0503081 0.0422551,-0.0181146 0.0799217,-0.0408177 0.112686,-0.0675566 0.0327832,-0.0270153 0.0586559,-0.0592088 0.0776366,-0.0965805 0.0186859,-0.0373717 0.0284526,-0.0810827 0.0287475,-0.130801 0,-0.0345154 -0.00490181,-0.0661376 -0.0146686,-0.0945903 -0.00949036,-0.0287475 -0.022998,-0.0537541 -0.0402465,-0.075886 -0.0172485,-0.0221503 -0.0373717,-0.0405413 -0.0606646,-0.0554863 -0.0215606,-0.0143737 -0.045996,-0.0258727 -0.0727348,-0.034497 -0.0270153,-0.00862425 -0.057495,-0.0146686 -0.0916971,-0.0186859 -0.0342021,-0.00374086 -0.0733061,-0.00547308 -0.116722,-0.00547308l-0.436391 0 0 0.0500317c0.0330596,0.00230348 0.0592272,0.00545465 0.0790556,0.00949036 0.019552,0.00431212 0.0342206,0.011499 0.0439873,0.021837 0.0097852,0.0106329 0.0163824,0.0261676 0.0192571,0.0471569 0.00316959,0.0209709 0.00460697,0.049442 0.00431212,0.0853763l0 0.688226c0.000294846,0.0362108 -0.00114253,0.0652531 -0.00458854,0.0868137 -0.00316959,0.0215606 -0.0100616,0.037943 -0.0204181,0.0488707 -0.010338,0.0109277 -0.0255779,0.0186859 -0.0462908,0.0232928 -0.0206945,0.00431212 -0.0480046,0.00775814 -0.0822068,0.0100616l0 0.0500133 0.463995 0 0 -0.0500133c-0.0339257,-0.00230348 -0.0609594,-0.0057495 -0.0810827,-0.0100616 -0.0203997,-0.00460697 -0.0356395,-0.0123651 -0.045996,-0.0232928 -0.0100616,-0.0109277 -0.0169536,-0.0273101 -0.0201232,-0.0488707 -0.00344601,-0.0215606 -0.00488339,-0.0506029 -0.00458854,-0.0868137l0 -0.270816 0.0500133 0c0.0278814,0 0.0503081,0.00230348 0.0678514,0.00718687 0.0172485,0.00490181 0.0316222,0.01266 0.0431212,0.022998 0.011499,0.0103565 0.0221319,0.0238641 0.0321935,0.0405413 0.0166772,0.0284526 0.0342021,0.0583611 0.0526116,0.0896885 0.018391,0.0316222 0.0370769,0.062968 0.056334,0.0942954 0.0192756,0.031051 0.0388091,0.0606646 0.0583611,0.0885459 0.0186859,0.027605 0.037943,0.0508794 0.0572186,0.0701365 0.0195335,0.0192756 0.0402465,0.0350867 0.0629496,0.0474334 0.0224267,0.0123651 0.0477282,0.0215606 0.0761808,0.0281762 0.0281762,0.00661561 0.0603697,0.0109277 0.0968753,0.0129364 0.00949036,0.00086611 0.0192756,0.00143737 0.0293372,0.00143737 0.0100616,0.000294846 0.0198284,0.000294846 0.0293187,0.000294846l0.00689203 -0.0465672zm-0.719258 -0.514027l0 -0.426034c0,-0.0221319 0.00143737,-0.0388091 0.00401728,-0.0500133 0.00287475,-0.0112226 0.00718687,-0.0192756 0.0132312,-0.0241589 0.00689203,-0.00517823 0.0178198,-0.00949036 0.0327648,-0.0126415 0.014945,-0.00287475 0.034497,-0.00460697 0.0586375,-0.00460697 0.0313458,-0.000276418 0.0615307,0.00431212 0.090573,0.0135076 0.0287475,0.00949036 0.0546202,0.0241589 0.0776182,0.0442822 0.022998,0.0201232 0.0410942,0.0465672 0.0546202,0.0790556 0.0132128,0.0324883 0.0201232,0.0718687 0.0203997,0.118436 0.000294846,0.0462908 -0.00689203,0.0871086 -0.021837,0.122472 -0.0146686,0.0350682 -0.0379614,0.065548 -0.0695837,0.0914207 -0.0212658,0.0169536 -0.0468437,0.0293187 -0.0767521,0.0370769 -0.02989,0.00775814 -0.0658244,0.011499 -0.107803,0.0112041l-0.075886 0z"/>
 </g>
</svg>
