<?xml version="1.0" encoding="UTF-8"?>
<!DOCTYPE svg PUBLIC "-//W3C//DTD SVG 1.1//EN" "http://www.w3.org/Graphics/SVG/1.1/DTD/svg11.dtd">
<!-- Creator: CorelDRAW -->
<svg xmlns="http://www.w3.org/2000/svg" xml:space="preserve" width="63.4333mm" height="14.7644mm" style="shape-rendering:geometricPrecision; text-rendering:geometricPrecision; image-rendering:optimizeQuality; fill-rule:evenodd; clip-rule:evenodd"
viewBox="0 0 19.1351 4.45378"
 xmlns:xlink="http://www.w3.org/1999/xlink">
 <defs>
  <style type="text/css">
   <![CDATA[
    .fil1 {fill:#75C5F0}
    .fil0 {fill:white;fill-rule:nonzero}
    .fil3 {fill:#007CC3;fill-opacity:0.501961}
    .fil4 {fill:#0093DD;fill-opacity:0.501961}
    .fil2 {fill:#75C5F0;fill-opacity:0.501961}
   ]]>
  </style>
 </defs>
 <g id="Layer_x0020_1">
  <metadata id="CorelCorpID_0Corel-Layer"/>
  <g id="_279749464">
   <path id="_279928800" class="fil0" d="M6.8756 0.868469c-0.00935135,-0.0742075 -0.0181296,-0.140843 -0.0257011,-0.199274 -0.00760174,-0.0578577 -0.0146303,-0.11101 -0.0210556,-0.15837 -0.00642528,-0.0473299 -0.0116741,-0.0917338 -0.0163498,-0.133212 -0.0397583,-0.0122774 -0.0835589,-0.0245548 -0.130919,-0.0368323 -0.0479031,-0.0122774 -0.098159,-0.0222019 -0.151341,-0.03095 -0.0537552,-0.00820506 -0.10926,-0.0122774 -0.166545,-0.0128807 -0.115112,0.000603313 -0.217977,0.0175564 -0.308534,0.050256 -0.0911606,0.0327297 -0.168294,0.0789133 -0.232004,0.136741 -0.0636797,0.058461 -0.111613,0.12564 -0.145489,0.2022 -0.033333,0.0759571 -0.050256,0.157766 -0.050256,0.245428 0.000573147,0.0771336 0.0128506,0.146092 0.0368021,0.207449 0.0239515,0.0613569 0.0561081,0.116289 0.0964094,0.165368 0.0409046,0.0485064 0.0864849,0.0917639 0.137344,0.130316 0.050256,0.0385819 0.102835,0.0736344 0.157193,0.104614 0.0543283,0.0309801 0.106937,0.0601805 0.157766,0.0864849 0.0870882,0.0461534 0.164222,0.0929102 0.230828,0.140843 0.0666058,0.0479031 0.118642,0.101658 0.15662,0.161266 0.0379786,0.0601805 0.0572544,0.130889 0.0578577,0.213301 0,0.0835589 -0.0163799,0.156017 -0.0485064,0.216801 -0.0321566,0.0613569 -0.07831,0.108687 -0.139094,0.142593 -0.0601805,0.0333029 -0.133242,0.050256 -0.219123,0.0508291 -0.0713116,-0.000573147 -0.135595,-0.014027 -0.192276,-0.039155 -0.0566813,-0.0257011 -0.106334,-0.0596073 -0.150165,-0.101688 -0.0432575,-0.0426542 -0.0806328,-0.089411 -0.112216,-0.14024 -0.03095,-0.0508291 -0.0572544,-0.102262 -0.0782799,-0.153694 -0.0210556,-0.0520056 -0.0374054,-0.0993355 -0.0491097,-0.143739l-0.105188 0.0280541c0.00527899,0.0455803 0.0122774,0.0958363 0.0198792,0.151341 0.00760174,0.0549317 0.0157766,0.109863 0.025128,0.163619 0.0087782,0.0543585 0.0175262,0.102865 0.0263044,0.144916 0.00817489,0.0426542 0.0163498,0.0742377 0.0233784,0.0940867 0.0187027,0.0087782 0.0426542,0.0198792 0.0712814,0.0327297 0.0292305,0.0128506 0.0660326,0.0268776 0.11104,0.0409046 0.0438307,0.0146002 0.0946598,0.0268776 0.151914,0.0368021 0.0578577,0.00995467 0.121568,0.0152035 0.191673,0.0157766 0.118642,-0.000573147 0.226755,-0.0180994 0.323738,-0.0525787 0.0964396,-0.0344793 0.179998,-0.0818093 0.250103,-0.143166 0.069562,-0.0613569 0.123317,-0.132669 0.161296,-0.213874 0.0379786,-0.0812361 0.0566813,-0.169471 0.0572846,-0.263557 -0.00117646,-0.0958363 -0.019306,-0.179968 -0.0543585,-0.251853 -0.0356558,-0.0713116 -0.0823824,-0.134418 -0.141417,-0.188173 -0.0590342,-0.0537552 -0.124463,-0.101688 -0.196348,-0.143739 -0.0712814,-0.0420811 -0.144343,-0.0812361 -0.217977,-0.117465 -0.0934834,-0.0467568 -0.173543,-0.0940867 -0.239002,-0.141417 -0.0660326,-0.0467568 -0.116289,-0.0999388 -0.150768,-0.15837 -0.0344793,-0.0584309 -0.0520056,-0.127963 -0.0520056,-0.208626 0,-0.0484762 0.00760174,-0.0958363 0.0233784,-0.140813 0.0152035,-0.0450072 0.0385819,-0.0853085 0.0701351,-0.120964 0.03095,-0.0356558 0.0707083,-0.064283 0.118038,-0.0847353 0.0473299,-0.0210255 0.103438,-0.0315533 0.167118,-0.0321566 0.0748108,0.000603313 0.138491,0.0146303 0.191099,0.0415079 0.0525787,0.0274507 0.0964094,0.0636797 0.130889,0.108687 0.0350525,0.0450072 0.0637099,0.0952631 0.0859118,0.150195 0.0222019,0.0543283 0.0403013,0.109833 0.0549317,0.165941l0.108687 -0.0175262z"/>
   <path id="_2799288001" class="fil0" d="M9.15814 0.893024c-0.00467568,-0.0520056 -0.0087782,-0.106937 -0.0128807,-0.163619 -0.00407236,-0.0572846 -0.00817489,-0.113966 -0.011101,-0.170647 -0.00349922,-0.0561081 -0.00582197,-0.109863 -0.00817489,-0.160692 -0.00174961,-0.0508593 -0.00292607,-0.0964396 -0.00292607,-0.136168l-0.0771336 0c-0.0169229,0.0222019 -0.0333029,0.0397282 -0.0485064,0.0520056 -0.0157766,0.0128506 -0.0333029,0.0222019 -0.0537552,0.0274809 -0.019849,0.00582197 -0.0455803,0.00817489 -0.0765303,0.00817489l-1.39196 0c-0.0321566,0.000573147 -0.0596073,-0.00117646 -0.0818093,-0.00467568 -0.0222019,-0.00349922 -0.0420811,-0.0117043 -0.0596073,-0.0245548 -0.0169531,-0.0122774 -0.0344793,-0.0321264 -0.0514324,-0.0584309l-0.0736344 0c-0.00232276,0.0637099 -0.00582197,0.130889 -0.0099245,0.2022 -0.00467568,0.0712814 -0.00935135,0.144343 -0.0152035,0.21855 -0.00524882,0.0742075 -0.011101,0.147842 -0.0169531,0.220873l0.108717 0c0.0192759,-0.0788832 0.0379786,-0.144312 0.0566813,-0.196348 0.0187027,-0.0525787 0.0379786,-0.0934834 0.059004,-0.122714 0.0117043,-0.0192759 0.0263044,-0.0356256 0.0432575,-0.0496527 0.0175262,-0.0134539 0.0403013,-0.025128 0.0695318,-0.0339062 0.0286272,-0.00874804 0.0672091,-0.0152035 0.114539,-0.0192759 0.0473299,-0.00410253 0.106937,-0.00585214 0.179395,-0.00585214l0.199847 0 0 1.71453c0.000603313,0.0701351 -0.00232276,0.126816 -0.00935135,0.169471 -0.00699843,0.0426542 -0.0215986,0.075384 -0.0438307,0.0975859 -0.0227751,0.0222019 -0.0572544,0.0385819 -0.103408,0.0479332 -0.0467568,0.0099245 -0.108717,0.0169229 -0.186997,0.0215986l0 0.101688 1.03079 0 0 -0.101688c-0.0818093,-0.00467568 -0.146665,-0.0116741 -0.195172,-0.0222019 -0.0479031,-0.0099245 -0.0835589,-0.0263044 -0.106937,-0.0485064 -0.0239515,-0.0227751 -0.039155,-0.0555048 -0.0461534,-0.098159 -0.0070286,-0.0420811 -0.0099245,-0.0981892 -0.00935135,-0.167721l0 -1.71453 0.231401 0c0.0637099,0 0.116289,0.00174961 0.15837,0.00527899 0.0420811,0.00349922 0.0759571,0.00874804 0.102835,0.0169229 0.0268776,0.00820506 0.0485064,0.0187027 0.0660326,0.0327297 0.0175564,0.0134539 0.033333,0.0298037 0.0479332,0.050256 0.0152035,0.0192759 0.0292004,0.0432575 0.0426542,0.0718848 0.0134539,0.0286272 0.0263044,0.0631065 0.0385819,0.104011 0.0128506,0.0409046 0.025128,0.089411 0.0379786,0.146665l0.105188 -0.0104976z"/>
   <path id="_27992880012" class="fil0" d="M11.353 2.62857l0 -0.101688c-0.0561081,-0.00524882 -0.103438,-0.0134237 -0.140813,-0.0239515 -0.0374054,-0.0105278 -0.0689587,-0.0274507 -0.0952631,-0.0514324 -0.0263044,-0.0239515 -0.0508291,-0.0584309 -0.0742075,-0.104011 -0.0228052,-0.0455803 -0.0479332,-0.106364 -0.075384,-0.181718 -0.0748108,-0.202804 -0.150768,-0.40965 -0.226755,-0.620025 -0.0765303,-0.210375 -0.151914,-0.420751 -0.227902,-0.631126 -0.075384,-0.210345 -0.149591,-0.416045 -0.222049,-0.617672l-0.122714 0.0350827 -0.725786 1.83374c-0.0292004,0.0753538 -0.0560779,0.135564 -0.0800596,0.180541 -0.0245247,0.0450072 -0.0496527,0.0794865 -0.0765303,0.102865 -0.0274809,0.0233784 -0.0596073,0.0403315 -0.0970127,0.0508291 -0.0374054,0.011101 -0.0835589,0.0198792 -0.139094,0.0268776l0 0.101688 0.767867 0 0 -0.101688c-0.0654595,-0.00642528 -0.116862,-0.0146002 -0.155444,-0.025128 -0.0379786,-0.0099245 -0.0648562,-0.0245247 -0.0800596,-0.0438307 -0.0152035,-0.0186725 -0.0210255,-0.044977 -0.0175262,-0.0782799 0.00349922,-0.033333 0.014027,-0.0765604 0.0321264,-0.129742 0.0245548,-0.0718848 0.0491097,-0.143739 0.0742377,-0.216227 0.0245247,-0.0718546 0.050256,-0.144916 0.0765303,-0.21855l0.736313 0c0.0374054,0.100512 0.0712814,0.194599 0.102835,0.28226 0.0315533,0.0876614 0.0584309,0.164192 0.0794865,0.229651 0.0169531,0.0461836 0.0233784,0.0818093 0.0192759,0.108114 -0.00467568,0.0257011 -0.0239515,0.0450072 -0.0584309,0.0584309 -0.0339062,0.0134539 -0.0876614,0.0245548 -0.160692,0.0333029l0 0.101688 0.887051 0zm-0.922134 -0.971213l-0.627596 0c0.0508291,-0.14199 0.103438,-0.286332 0.157193,-0.432425 0.053182,-0.145519 0.10751,-0.291611 0.161869,-0.4371l0.0105278 0 0.298006 0.869525z"/>
   <path id="_279928800123" class="fil0" d="M13.4742 2.00798c-0.059004,0.115715 -0.121537,0.213874 -0.188746,0.294537 -0.0672091,0.0800295 -0.143166,0.140813 -0.229078,0.182321 -0.0858816,0.0420509 -0.186394,0.0631065 -0.300933,0.0631065 -0.131492,-0.000603313 -0.251853,-0.0274809 -0.361143,-0.0794865 -0.109863,-0.0525787 -0.204523,-0.12739 -0.285156,-0.224402 -0.080663,-0.0975859 -0.143166,-0.212698 -0.1876,-0.347116 -0.0444038,-0.133815 -0.0666058,-0.282833 -0.0671789,-0.446452 0,-0.106937 0.0122473,-0.210948 0.0362289,-0.31146 0.0239515,-0.0999086 0.0601805,-0.192849 0.108084,-0.279334 0.0473601,-0.0858816 0.106937,-0.161266 0.177646,-0.226122 0.0707083,-0.0648863 0.152548,-0.115142 0.245458,-0.151944 0.0934834,-0.0362289 0.197495,-0.0543585 0.312637,-0.0549317 0.119184,-0.000573147 0.223226,0.0169531 0.312607,0.0520056 0.0888378,0.0356558 0.163649,0.0917338 0.223256,0.169471 0.0601805,0.0771336 0.105761,0.178822 0.137314,0.304462l0.108687 -0.0245548c-0.00699843,-0.0637099 -0.014027,-0.12389 -0.0210255,-0.181145 -0.00760174,-0.0572846 -0.0152035,-0.114539 -0.0233784,-0.171824 -0.00760174,-0.0572544 -0.0163799,-0.118611 -0.0257313,-0.183468 -0.0333029,-0.00760174 -0.0806328,-0.019306 -0.142563,-0.0339062 -0.0613569,-0.0146002 -0.133242,-0.0286272 -0.215051,-0.0409046 -0.0824126,-0.0122774 -0.17122,-0.0192759 -0.266483,-0.0198792 -0.199244,0.000603313 -0.380992,0.0298037 -0.54636,0.0876614 -0.165398,0.0578577 -0.307961,0.14024 -0.428925,0.247781 -0.120964,0.10751 -0.215051,0.23665 -0.281084,0.386271 -0.0660326,0.150165 -0.0993355,0.317313 -0.100512,0.501956 0,0.112186 0.0152035,0.223799 0.0467568,0.334839 0.0315533,0.110436 0.0794563,0.215624 0.144343,0.314386 0.0648562,0.0987623 0.147239,0.186997 0.247177,0.263557 0.100512,0.0765604 0.219123,0.136741 0.356468,0.180572 0.137314,0.0438307 0.294507,0.0660326 0.470976,0.0671789 0.0637099,-0.000573147 0.128566,-0.00407236 0.194025,-0.011101 0.0654293,-0.00757158 0.128566,-0.0163498 0.188173,-0.0268776 0.0595772,-0.0099245 0.112759,-0.0204523 0.158943,-0.0298037 0.0467266,-0.0099245 0.0823824,-0.0175262 0.10751,-0.0233784 0.0152035,-0.0303768 0.0315533,-0.0677822 0.0496828,-0.112186 0.0175262,-0.0438307 0.0356256,-0.0917338 0.0537552,-0.142593 0.0180994,-0.0508291 0.0350525,-0.101085 0.0514324,-0.150768 0.0157766,-0.050256 0.0298037,-0.0958363 0.0414778,-0.137887l-0.101688 -0.0385819z"/>
   <path id="_2799288001234" class="fil0" d="M16.0127 2.62857l0 -0.101688c-0.0409046,-0.00467568 -0.0771336,-0.0116741 -0.10926,-0.0210255 -0.0327297,-0.00935135 -0.0637099,-0.0228052 -0.0940867,-0.0409046 -0.0303768,-0.0175262 -0.0625334,-0.0420811 -0.0964094,-0.0724579 -0.0339062,-0.0309801 -0.0730612,-0.0701351 -0.117465,-0.118038 -0.0479332,-0.0543585 -0.104614,-0.119215 -0.170044,-0.194599 -0.0648863,-0.075384 -0.134418,-0.157193 -0.208626,-0.244855 -0.0736344,-0.0870581 -0.147842,-0.176469 -0.222049,-0.266483 -0.0736344,-0.0905573 -0.14377,-0.177646 -0.209199,-0.261778 0.075384,-0.075384 0.149591,-0.150195 0.223226,-0.223799 0.0736344,-0.0736344 0.142563,-0.142593 0.206846,-0.206876 0.064283,-0.064283 0.120964,-0.119215 0.169471,-0.165368 0.0543585,-0.0496828 0.103438,-0.0900143 0.146092,-0.121568 0.0426542,-0.0315533 0.0841622,-0.0560779 0.125067,-0.0742075 0.0403013,-0.0175262 0.084132,-0.0315533 0.131462,-0.0409046 0.0467568,-0.00935135 0.102262,-0.0169531 0.165398,-0.0227751l0 -0.101688 -0.852029 0 0 0.101688 0.0771336 0.0104976c0.0526089,0.00527899 0.0882647,0.014027 0.108114,0.0268776 0.0204523,0.0122774 0.0257313,0.0309801 0.0175262,0.0549317 -0.00874804,0.0239817 -0.0292004,0.0566813 -0.0625032,0.0970127 -0.0508593,0.0625334 -0.107541,0.128566 -0.170647,0.198098 -0.0631065,0.0695318 -0.129139,0.139667 -0.197525,0.210375 -0.0683554,0.0707083 -0.136138,0.139064 -0.203347,0.205096 -0.050256,0.0455803 -0.0946598,0.0818394 -0.133815,0.108114 -0.039155,0.0268776 -0.0771336,0.0444038 -0.115112,0.053182l0 -0.61007c-0.000603313,-0.0765604 0.00232276,-0.137344 0.00935135,-0.182925 0.00642528,-0.044977 0.019849,-0.0788832 0.0397282,-0.102262 0.019849,-0.0227751 0.050256,-0.0391249 0.0899841,-0.0484762 0.0397282,-0.00935135 0.0929102,-0.0157766 0.158943,-0.0204523l0 -0.101688 -0.925633 0 0 0.101688c0.0677822,0.00467568 0.122141,0.011101 0.163045,0.0204523 0.0409046,0.00874804 0.0718848,0.0245247 0.0923371,0.0473299 0.0204523,0.0227751 0.033876,0.0566813 0.0403013,0.102262 0.0070286,0.0455803 0.00995467,0.106937 0.00935135,0.184071l0 1.36741c0.000603313,0.075384 -0.00232276,0.136168 -0.00874804,0.181145 -0.0070286,0.0450072 -0.0198792,0.0794865 -0.0397583,0.102262 -0.019849,0.0233784 -0.0496527,0.0397583 -0.0888077,0.0496828 -0.0397282,0.00935135 -0.0917338,0.0163498 -0.157193,0.0210255l0 0.101688 0.936161 0 0 -0.101688c-0.0713116,-0.00467568 -0.128566,-0.0116741 -0.17122,-0.0210255 -0.0426542,-0.0099245 -0.0748108,-0.0263044 -0.0964396,-0.0496828 -0.0210255,-0.0227751 -0.0350525,-0.0572544 -0.0420509,-0.102262 -0.0070286,-0.044977 -0.00995467,-0.105761 -0.00935135,-0.181145l0 -0.65915c0.0192759,-0.00410253 0.0385517,-0.00410253 0.0566813,0 0.0180994,0.00349922 0.0379786,0.0134237 0.0584309,0.0292004 0.0204523,0.0157766 0.0444038,0.0403315 0.0707083,0.0724579 0.100512,0.123317 0.199274,0.243678 0.296257,0.36232 0.0964396,0.118611 0.189923,0.232577 0.281084,0.34244 0.0905875,0.10926 0.177646,0.212125 0.260631,0.308534l0.567989 0z"/>
   <circle id="_279928296" class="fil1" cx="16.5151" cy="2.53889" r="0.1089"/>
   <circle id="_279932808" class="fil1" cx="17.0776" cy="2.53889" r="0.1089"/>
   <circle id="_279928056" class="fil1" cx="17.6401" cy="2.53889" r="0.1089"/>
   <circle id="_279920064" class="fil1" cx="18.2026" cy="2.53889" r="0.1089"/>
   <circle id="_279927624" class="fil1" cx="18.7651" cy="2.53889" r="0.1089"/>
   <path id="_287934824" class="fil0" d="M8.70342 4.13025c-0.0196378,-0.00573147 -0.0398488,-0.0150828 -0.0606933,-0.0274507 -0.0205126,-0.0123981 -0.0425637,-0.0311008 -0.0660929,-0.0558366 -0.0141779,-0.0154146 -0.0283859,-0.0317041 -0.0422621,-0.0488985 -0.0141779,-0.0172246 -0.0292908,-0.0374356 -0.045882,-0.0603916 -0.0162895,-0.0229259 -0.035324,-0.0504068 -0.0567416,-0.0826841 -0.0135745,-0.0205428 -0.0280842,-0.0428654 -0.0434687,-0.0670281 -0.0153845,-0.0238309 -0.0301958,-0.0479936 -0.044977,-0.0721261 -0.0147812,-0.023861 -0.0283557,-0.0464853 -0.0407538,-0.0670281 -0.0120663,-0.0208143 -0.0223226,-0.038612 -0.0301657,-0.0528201 0.0443737,-0.0190044 0.0838907,-0.0428352 0.11831,-0.0709194 0.034419,-0.0283859 0.0615681,-0.0621714 0.0815076,-0.101417 0.0196077,-0.0392455 0.029864,-0.0851275 0.0301657,-0.137344 0,-0.0362289 -0.00512816,-0.0694112 -0.0153845,-0.0993053 -0.00995467,-0.0301958 -0.0241325,-0.0564399 -0.0422621,-0.0796977 -0.0180994,-0.0232276 -0.0392455,-0.0425336 -0.0636797,-0.0582499 -0.0226544,-0.0150828 -0.0482952,-0.0271491 -0.0763794,-0.0362289 -0.0283557,-0.0090497 -0.0603615,-0.0153845 -0.0962888,-0.0196077 -0.0358971,-0.00392153 -0.0769526,-0.00573147 -0.122533,-0.00573147l-0.458186 0 0 0.0525184c0.0346905,0.00241325 0.0621714,0.00573147 0.0829857,0.00995467 0.0205428,0.00452485 0.0359273,0.0120663 0.0461836,0.0229561 0.0102563,0.0111613 0.0172246,0.0274507 0.0202412,0.0495018 0.00331822,0.0220209 0.0048265,0.0519151 0.00452485,0.0896523l0 0.722588c0.000301657,0.0380389 -0.00120663,0.0685364 -0.0048265,0.0911606 -0.00331822,0.0226544 -0.0105881,0.0398488 -0.0214478,0.0513118 -0.0108596,0.0114629 -0.0268474,0.0196378 -0.0485969,0.0244643 -0.0217193,0.00452485 -0.0504068,0.00814473 -0.0863341,0.010558l0 0.0525184 0.487175 0 0 -0.0525184c-0.0355955,-0.00241325 -0.0639813,-0.00603313 -0.0850973,-0.010558 -0.0214478,-0.0048265 -0.0374356,-0.0130014 -0.0482952,-0.0244643 -0.0105881,-0.0114629 -0.0178279,-0.0286574 -0.0211461,-0.0513118 -0.00361988,-0.0226242 -0.00512816,-0.0531217 -0.0048265,-0.0911606l0 -0.284341 0.0525184 0c0.0292908,0 0.0528201,0.00244342 0.0712513,0.00757158 0.0180994,0.00512816 0.0331822,0.0132729 0.0452786,0.0241325 0.0120663,0.0108596 0.0232276,0.0250677 0.0337855,0.0425637 0.0175262,0.0298942 0.0359273,0.0612664 0.0552333,0.0941772 0.0193362,0.0332124 0.0389439,0.0660929 0.059185,0.0990037 0.020211,0.0326091 0.0407236,0.0636797 0.0612664,0.0929705 0.0196077,0.028959 0.0398488,0.0534234 0.0600598,0.0736344 0.0205126,0.0202412 0.0422621,0.0368323 0.0660929,0.0498035 0.0235594,0.0130014 0.0501051,0.0226544 0.0799993,0.0295925 0.0295925,0.0069381 0.063378,0.0114629 0.101719,0.0135745 0.00995467,0.00090497 0.0202412,0.00150828 0.0307991,0.00150828 0.010558,0.000301657 0.0208143,0.000301657 0.030769,0.000301657l0.00726992 -0.0488985zm-0.755227 -0.539694l0 -0.447326c0,-0.0232276 0.00150828,-0.0407538 0.00422319,-0.0525184 0.00301657,-0.0117646 0.00754141,-0.020211 0.0138762,-0.0253391 0.00726992,-0.00545998 0.0187329,-0.00998483 0.034419,-0.0133031 0.0156861,-0.00301657 0.0362289,-0.0048265 0.0615681,-0.0048265 0.0329107,-0.000301657 0.0646148,0.00452485 0.0950821,0.0141779 0.0301958,0.00998483 0.0573751,0.0253693 0.0815076,0.0464853 0.0241627,0.0211461 0.043167,0.0488985 0.0573449,0.0830159 0.0138762,0.0341174 0.0211461,0.0754745 0.0214478,0.124373 0.000301657,0.0485969 -0.00723976,0.0914623 -0.0229561,0.128566 -0.0153845,0.0368323 -0.0398488,0.068838 -0.073031,0.0959871 -0.0223527,0.0178279 -0.0492002,0.0307991 -0.0806026,0.0389439 -0.0314024,0.00814473 -0.0691095,0.0120663 -0.113182,0.0117646l-0.0796977 0z"/>
   <path id="_2879348241" class="fil0" d="M9.63066 3.86766c-0.0138762,0.0365306 -0.0286574,0.0694112 -0.0446753,0.0990037 -0.0162895,0.0292908 -0.0319756,0.053725 -0.0476919,0.073031 -0.0129712,0.015113 -0.0286574,0.0268776 -0.0470886,0.0356256 -0.0180994,0.00874804 -0.0416286,0.0150828 -0.0700145,0.0187329 -0.0286875,0.00361988 -0.064283,0.00542982 -0.10745,0.00542982 -0.0425637,0.000603313 -0.079396,-0.000301657 -0.110467,-0.00271491 -0.0307991,-0.0021116 -0.0549618,-0.00847655 -0.0724579,-0.0190345 -0.0108596,-0.0069381 -0.019306,-0.0165911 -0.0256408,-0.028959 -0.00636495,-0.0120964 -0.0111915,-0.0277826 -0.0139064,-0.0470886 -0.00271491,-0.0196378 -0.00392153,-0.0437704 -0.00392153,-0.0724579l0 -0.33505 0.162985 0c0.0389439,-0.000301657 0.0703463,0.00090497 0.0938755,0.00361988 0.0232577,0.00271491 0.0413571,0.0087782 0.0543283,0.0178279 0.0126997,0.0090497 0.0223527,0.0232276 0.0289892,0.0419604 0.0069381,0.0187027 0.0129712,0.044072 0.018401,0.0760476l0.0543585 0 0 -0.349529 -0.0543585 0c-0.00542982,0.0301958 -0.0114629,0.0543283 -0.0177977,0.0724579 -0.00633479,0.0180994 -0.0159878,0.0316739 -0.0283557,0.0410253 -0.0123981,0.00907986 -0.0304975,0.015113 -0.0540568,0.0181296 -0.0238309,0.00301657 -0.055535,0.00452485 -0.0953838,0.00422319l-0.162985 0 0 -0.407478c-0.000301657,-0.0178279 0.000603313,-0.0311008 0.00301657,-0.0395472 0.00241325,-0.00874804 0.00814473,-0.014208 0.0169229,-0.0169229 0.00874804,-0.00241325 0.0226242,-0.00361988 0.0416286,-0.00331822l0.130406 0c0.0413571,0 0.0751728,0.00150828 0.101719,0.00452485 0.0262743,0.00331822 0.0470886,0.0087782 0.0624731,0.016018 0.015113,0.00754141 0.0268776,0.0174961 0.0350223,0.0301657 0.00844638,0.0123981 0.0162895,0.0259726 0.0235594,0.0407538 0.00723976,0.0147812 0.0141779,0.0314024 0.0205126,0.0501051 0.00633479,0.0187329 0.0120663,0.0401505 0.0174961,0.0648863l0.0543585 -0.0090497c-0.00153845,-0.0244342 -0.00304673,-0.0495018 -0.00455501,-0.075746 -0.00180994,-0.0259726 -0.00331822,-0.0513118 -0.0048265,-0.0760778 -0.00180994,-0.0244342 -0.00301657,-0.0464853 -0.00452485,-0.0657913 -0.00120663,-0.0193362 -0.00180994,-0.034419 -0.00241325,-0.044977l-0.814955 0 0 0.0525184c0.0346905,0.00271491 0.0621714,0.00633479 0.0829857,0.010558 0.0205428,0.00452485 0.0359273,0.0123679 0.0461836,0.0235594 0.0102563,0.0111613 0.0172246,0.0283557 0.0202412,0.0516134 0.00331822,0.0232276 0.0048265,0.0549317 0.00452485,0.0953838l0 0.715348c0.000301657,0.0371339 -0.00120663,0.0670281 -0.0048265,0.089049 -0.00365004,0.0223527 -0.0111915,0.0389439 -0.0226544,0.0504068 -0.0117646,0.0114629 -0.0295925,0.0196378 -0.0534234,0.0244643 -0.0241325,0.00512816 -0.0561383,0.0090497 -0.0965904,0.0117646l0 0.0525184 0.881983 0c0.00331822,-0.0114629 0.00723976,-0.0265759 0.0117646,-0.0452786 0.00452485,-0.0190044 0.00935135,-0.0395472 0.0145097,-0.0621714 0.00512816,-0.0223527 0.00995467,-0.044977 0.0147812,-0.0679331 0.0048265,-0.0229259 0.00935135,-0.0440419 0.0132729,-0.0636797 0.00361988,-0.0196077 0.0069381,-0.0359273 0.0090497,-0.0488985l-0.0543283 -0.0090497z"/>
   <path id="_28793482412" class="fil0" d="M10.8368 3.8441c-0.0304975,0.0597883 -0.0627747,0.110497 -0.0974954,0.152156 -0.0347207,0.0413269 -0.0739662,0.0727294 -0.11834,0.094147 -0.0443737,0.0217494 -0.0962888,0.0326091 -0.155444,0.0326091 -0.0679029,-0.000301657 -0.130074,-0.0141779 -0.186544,-0.0410555 -0.0567416,-0.0271491 -0.10564,-0.0657913 -0.147299,-0.115896 -0.0416286,-0.0504068 -0.073936,-0.109863 -0.0968921,-0.179305 -0.0229259,-0.0691095 -0.0343888,-0.146092 -0.0346905,-0.230586 0,-0.0552635 0.00633479,-0.108989 0.0187027,-0.160904 0.0123679,-0.0516134 0.0311008,-0.099607 0.0558366,-0.144282 0.0244643,-0.0443737 0.0552333,-0.0832874 0.0917639,-0.116801 0.0365306,-0.033514 0.0787927,-0.0594565 0.126786,-0.078491 0.0482952,-0.0187027 0.10202,-0.0280541 0.161477,-0.0283557 0.0615681,-0.000301657 0.115293,0.00874804 0.161477,0.0268474 0.045882,0.0184312 0.0845242,0.0473902 0.115323,0.0875407 0.0310706,0.0398488 0.05463,0.0923672 0.0709194,0.157254l0.0561383 -0.0126696c-0.00361988,-0.0329107 -0.00723976,-0.0639813 -0.0108596,-0.0935739 -0.00392153,-0.0295623 -0.00784307,-0.0591548 -0.0120663,-0.0887474 -0.00392153,-0.0295623 -0.00844638,-0.0612664 -0.0133031,-0.0947805 -0.0171944,-0.00392153 -0.0416286,-0.00995467 -0.0736344,-0.0174961 -0.0317041,-0.00754141 -0.0688079,-0.0147812 -0.11107,-0.021116 -0.0425637,-0.00636495 -0.0884457,-0.00998483 -0.137646,-0.0102865 -0.102925,0.000301657 -0.196801,0.0154146 -0.28223,0.0452786 -0.0854291,0.0298942 -0.159063,0.0724579 -0.221537,0.127993 -0.0625032,0.055535 -0.1111,0.122231 -0.145187,0.199516 -0.0341174,0.0775861 -0.0513118,0.16389 -0.0519151,0.259274 0,0.0579482 0.00784307,0.115625 0.0241325,0.17297 0.0162895,0.0570432 0.0410555,0.111372 0.0745695,0.162382 0.0334839,0.0510101 0.0760476,0.0965904 0.127661,0.136138 0.0519151,0.0395472 0.113212,0.0706178 0.184131,0.0932722 0.0709194,0.0226242 0.152125,0.0341174 0.243286,0.0347207 0.0329107,-0.000301657 0.0663946,-0.0021116 0.10021,-0.00576164 0.0338157,-0.00392153 0.0663946,-0.00844638 0.0971937,-0.0138762 0.0307991,-0.00512816 0.0582499,-0.010558 0.0821109,-0.0153845 0.0241325,-0.00512816 0.0425637,-0.0090497 0.055535,-0.0120663 0.00784307,-0.0157163 0.0162895,-0.0350223 0.0256408,-0.0579784 0.00907986,-0.0226242 0.0184312,-0.0473902 0.0277826,-0.0736344 0.00935135,-0.0262743 0.0180994,-0.0522167 0.0265458,-0.0778877 0.00817489,-0.0259425 0.0154146,-0.0495018 0.0214478,-0.0712211l-0.0525184 -0.0199395z"/>
   <path id="_287934824123" class="fil0" d="M11.6373 2.96031c-0.0775559,0.000301657 -0.148506,0.0117948 -0.212789,0.0341174 -0.064283,0.0223527 -0.121356,0.0534234 -0.171462,0.0929705 -0.0498035,0.0398488 -0.0920656,0.0860324 -0.126454,0.138852 -0.034419,0.0528201 -0.0603615,0.109863 -0.0781894,0.17113 -0.0177977,0.0609949 -0.0268474,0.124373 -0.0268474,0.189561 0.000603313,0.0872391 0.0156861,0.167842 0.0455803,0.241174 0.0301657,0.0733629 0.0721261,0.137344 0.125851,0.191673 0.053725,0.0543283 0.1165,0.0965904 0.188354,0.126485 0.0718244,0.029864 0.150014,0.0452786 0.234236,0.0455803 0.0669979,0 0.130678,-0.00938152 0.191371,-0.0280842 0.0603615,-0.018401 0.116198,-0.0455803 0.166907,-0.0812059 0.0507085,-0.0355955 0.0947805,-0.0787625 0.131914,-0.130074 0.0374356,-0.0513118 0.0663946,-0.109592 0.0869374,-0.175081 0.0208143,-0.0654896 0.0310706,-0.137344 0.0313723,-0.215805 -0.000301657,-0.0727596 -0.0108596,-0.139757 -0.0313723,-0.201627 -0.0205428,-0.0618999 -0.0492002,-0.117435 -0.0860324,-0.166635 -0.0368323,-0.0492002 -0.0796977,-0.0911606 -0.128898,-0.125549 -0.0492002,-0.0347207 -0.102925,-0.0612966 -0.160572,-0.0796977 -0.0576466,-0.018401 -0.117737,-0.0277826 -0.179908,-0.0277826zm-0.0398488 0.0670281c0.059185,0 0.114418,0.0126696 0.16573,0.0377372 0.0510101,0.0253391 0.0959871,0.0624731 0.134599,0.111975 0.0386422,0.0492002 0.068838,0.110165 0.0902556,0.182623 0.0217494,0.0724277 0.0329107,0.156047 0.0332124,0.250827 -0.000301657,0.0863039 -0.0102563,0.161778 -0.0298942,0.226363 -0.0196077,0.0643132 -0.0464853,0.117737 -0.0805725,0.160602 -0.0341174,0.0425336 -0.0730612,0.0745393 -0.117133,0.0956855 -0.044072,0.021116 -0.0908288,0.0316739 -0.140029,0.0316739 -0.0631065,-0.000301657 -0.121055,-0.0153845 -0.173272,-0.0446753 -0.0522167,-0.028959 -0.0974954,-0.0700145 -0.135836,-0.122835 -0.0380389,-0.0528201 -0.0676012,-0.11472 -0.0884457,-0.185338 -0.0208143,-0.0709194 -0.0313723,-0.148506 -0.0316739,-0.232125 0.000301657,-0.0841923 0.010558,-0.15846 0.030769,-0.22214 0.0202412,-0.0640115 0.0476919,-0.117435 0.0824126,-0.160602 0.0347207,-0.0428352 0.0745695,-0.0754443 0.119215,-0.0971937 0.0443737,-0.0217193 0.0914623,-0.0325789 0.140662,-0.0325789z"/>
   <path id="_2879348241234" class="fil0" d="M13.8341 4.16467l0 -0.0525184c-0.0386422,-0.00301657 -0.068838,-0.00754141 -0.0908589,-0.0129712 -0.0223226,-0.00542982 -0.0383405,-0.015113 -0.0488985,-0.0286875 -0.0102563,-0.0135745 -0.0171944,-0.0341174 -0.0205126,-0.0612664 -0.00331822,-0.0271793 -0.00545998,-0.064283 -0.00636495,-0.110768l-0.0162895 -0.65743c-0.00180994,-0.044977 -0.00120663,-0.0799993 0.00090497,-0.105942 0.00241325,-0.025671 0.0090497,-0.0446753 0.0196378,-0.0570432 0.0102563,-0.0123679 0.0271491,-0.0211461 0.0498035,-0.0259726 0.0226242,-0.0048265 0.053725,-0.0090497 0.0926387,-0.0120663l0 -0.0525184 -0.31692 0 -0.409288 0.885603 -0.400268 -0.885603 -0.3133 0 0 0.0525184c0.0326091,0.00301657 0.0591548,0.00663644 0.0806026,0.0108596 0.021116,0.00422319 0.0380087,0.0111613 0.0501051,0.0205428 0.0120663,0.0090497 0.0205126,0.0226242 0.0253391,0.040422 0.0048265,0.0178279 0.00723976,0.0419604 0.0069381,0.0718546 0,0.0298942 -0.0021116,0.0676012 -0.00542982,0.113483l-0.0253391 0.373089c-0.00361988,0.0467869 -0.0069381,0.0878424 -0.0102563,0.122835 -0.00334839,0.0350223 -0.00636495,0.0655198 -0.00907986,0.0914623 -0.00301657,0.025671 -0.00603313,0.0482952 -0.00874804,0.0673297 -0.00271491,0.019306 -0.00542982,0.0365004 -0.00814473,0.0516134 -0.00392153,0.0244342 -0.0111613,0.044072 -0.0217193,0.0582499 -0.0105881,0.0144795 -0.0262743,0.0253391 -0.0470886,0.0326091 -0.0208445,0.00723976 -0.0485969,0.0126696 -0.0833175,0.0159878l0 0.0543283 0.425607 0 0 -0.0543283c-0.0401505,-0.00331822 -0.0724579,-0.00814473 -0.0962888,-0.0144795 -0.0241627,-0.00666661 -0.0416588,-0.0172246 -0.0525184,-0.0320058 -0.0108898,-0.0147812 -0.0169229,-0.0359273 -0.0178279,-0.0639813 -0.00120663,-0.0226544 -0.0021116,-0.0476919 -0.00241325,-0.0751728 -0.000301657,-0.0274507 0.000301657,-0.0591548 0.00120663,-0.0953838 0.00090497,-0.0365306 0.00241325,-0.0790642 0.0048265,-0.128264l0.0271793 -0.508925 0.00361988 0 0.400238 0.959871 0.0380389 0 0.434657 -0.9834 0.00723976 0 0.00542982 0.729858c0.00090497,0.0464853 0.000301657,0.083589 -0.0021116,0.110768 -0.0021116,0.0271491 -0.00784307,0.0476919 -0.0171944,0.0612664 -0.00938152,0.0135745 -0.0244643,0.0232577 -0.0452786,0.0286875 -0.0208445,0.00542982 -0.0492002,0.00995467 -0.0857308,0.0129712l0 0.0525184 0.487175 0z"/>
   <path id="_28793482412345" class="fil0" d="M15.446 4.16467l0 -0.0525184c-0.0386422,-0.00301657 -0.068838,-0.00754141 -0.0908589,-0.0129712 -0.0223226,-0.00542982 -0.0383405,-0.015113 -0.0488985,-0.0286875 -0.0102563,-0.0135745 -0.0171944,-0.0341174 -0.0205126,-0.0612664 -0.00331822,-0.0271793 -0.00545998,-0.064283 -0.00636495,-0.110768l-0.0162895 -0.65743c-0.00180994,-0.044977 -0.00120663,-0.0799993 0.00090497,-0.105942 0.00241325,-0.025671 0.0090497,-0.0446753 0.0196378,-0.0570432 0.0102563,-0.0123679 0.0271491,-0.0211461 0.0498035,-0.0259726 0.0226242,-0.0048265 0.053725,-0.0090497 0.0926387,-0.0120663l0 -0.0525184 -0.31692 0 -0.409288 0.885603 -0.400268 -0.885603 -0.3133 0 0 0.0525184c0.0326091,0.00301657 0.0591548,0.00663644 0.0806026,0.0108596 0.021116,0.00422319 0.0380087,0.0111613 0.0501051,0.0205428 0.0120663,0.0090497 0.0205126,0.0226242 0.0253391,0.040422 0.0048265,0.0178279 0.00723976,0.0419604 0.0069381,0.0718546 0,0.0298942 -0.0021116,0.0676012 -0.00542982,0.113483l-0.0253391 0.373089c-0.00361988,0.0467869 -0.0069381,0.0878424 -0.0102563,0.122835 -0.00334839,0.0350223 -0.00636495,0.0655198 -0.00907986,0.0914623 -0.00301657,0.025671 -0.00603313,0.0482952 -0.00874804,0.0673297 -0.00271491,0.019306 -0.00542982,0.0365004 -0.00814473,0.0516134 -0.00392153,0.0244342 -0.0111613,0.044072 -0.0217193,0.0582499 -0.0105881,0.0144795 -0.0262743,0.0253391 -0.0470886,0.0326091 -0.0208445,0.00723976 -0.0485969,0.0126696 -0.0833175,0.0159878l0 0.0543283 0.425607 0 0 -0.0543283c-0.0401505,-0.00331822 -0.0724579,-0.00814473 -0.0962888,-0.0144795 -0.0241627,-0.00666661 -0.0416588,-0.0172246 -0.0525184,-0.0320058 -0.0108898,-0.0147812 -0.0169229,-0.0359273 -0.0178279,-0.0639813 -0.00120663,-0.0226544 -0.0021116,-0.0476919 -0.00241325,-0.0751728 -0.000301657,-0.0274507 0.000301657,-0.0591548 0.00120663,-0.0953838 0.00090497,-0.0365306 0.00241325,-0.0790642 0.0048265,-0.128264l0.0271793 -0.508925 0.00361988 0 0.400238 0.959871 0.0380389 0 0.434657 -0.9834 0.00723976 0 0.00542982 0.729858c0.00090497,0.0464853 0.000301657,0.083589 -0.0021116,0.110768 -0.0021116,0.0271491 -0.00784307,0.0476919 -0.0171944,0.0612664 -0.00938152,0.0135745 -0.0244643,0.0232577 -0.0452786,0.0286875 -0.0208445,0.00542982 -0.0492002,0.00995467 -0.0857308,0.0129712l0 0.0525184 0.487175 0z"/>
   <path id="_287934824123456" class="fil0" d="M16.4402 3.86766c-0.0138762,0.0365306 -0.0286574,0.0694112 -0.0446753,0.0990037 -0.0162895,0.0292908 -0.0319756,0.053725 -0.0476919,0.073031 -0.0129712,0.015113 -0.0286574,0.0268776 -0.0470886,0.0356256 -0.0180994,0.00874804 -0.0416286,0.0150828 -0.0700145,0.0187329 -0.0286875,0.00361988 -0.064283,0.00542982 -0.10745,0.00542982 -0.0425637,0.000603313 -0.079396,-0.000301657 -0.110467,-0.00271491 -0.0307991,-0.0021116 -0.0549618,-0.00847655 -0.0724579,-0.0190345 -0.0108596,-0.0069381 -0.019306,-0.0165911 -0.0256408,-0.028959 -0.00636495,-0.0120964 -0.0111915,-0.0277826 -0.0139064,-0.0470886 -0.00271491,-0.0196378 -0.00392153,-0.0437704 -0.00392153,-0.0724579l0 -0.33505 0.162985 0c0.0389439,-0.000301657 0.0703463,0.00090497 0.0938755,0.00361988 0.0232577,0.00271491 0.0413571,0.0087782 0.0543283,0.0178279 0.0126997,0.0090497 0.0223527,0.0232276 0.0289892,0.0419604 0.0069381,0.0187027 0.0129712,0.044072 0.018401,0.0760476l0.0543585 0 0 -0.349529 -0.0543585 0c-0.00542982,0.0301958 -0.0114629,0.0543283 -0.0177977,0.0724579 -0.00633479,0.0180994 -0.0159878,0.0316739 -0.0283557,0.0410253 -0.0123981,0.00907986 -0.0304975,0.015113 -0.0540568,0.0181296 -0.0238309,0.00301657 -0.055535,0.00452485 -0.0953838,0.00422319l-0.162985 0 0 -0.407478c-0.000301657,-0.0178279 0.000603313,-0.0311008 0.00301657,-0.0395472 0.00241325,-0.00874804 0.00814473,-0.014208 0.0169229,-0.0169229 0.00874804,-0.00241325 0.0226242,-0.00361988 0.0416286,-0.00331822l0.130406 0c0.0413571,0 0.0751728,0.00150828 0.101719,0.00452485 0.0262743,0.00331822 0.0470886,0.0087782 0.0624731,0.016018 0.015113,0.00754141 0.0268776,0.0174961 0.0350223,0.0301657 0.00844638,0.0123981 0.0162895,0.0259726 0.0235594,0.0407538 0.00723976,0.0147812 0.0141779,0.0314024 0.0205126,0.0501051 0.00633479,0.0187329 0.0120663,0.0401505 0.0174961,0.0648863l0.0543585 -0.0090497c-0.00153845,-0.0244342 -0.00304673,-0.0495018 -0.00455501,-0.075746 -0.00180994,-0.0259726 -0.00331822,-0.0513118 -0.0048265,-0.0760778 -0.00180994,-0.0244342 -0.00301657,-0.0464853 -0.00452485,-0.0657913 -0.00120663,-0.0193362 -0.00180994,-0.034419 -0.00241325,-0.044977l-0.814955 0 0 0.0525184c0.0346905,0.00271491 0.0621714,0.00633479 0.0829857,0.010558 0.0205428,0.00452485 0.0359273,0.0123679 0.0461836,0.0235594 0.0102563,0.0111613 0.0172246,0.0283557 0.0202412,0.0516134 0.00331822,0.0232276 0.0048265,0.0549317 0.00452485,0.0953838l0 0.715348c0.000301657,0.0371339 -0.00120663,0.0670281 -0.0048265,0.089049 -0.00365004,0.0223527 -0.0111915,0.0389439 -0.0226544,0.0504068 -0.0117646,0.0114629 -0.0295925,0.0196378 -0.0534234,0.0244643 -0.0241325,0.00512816 -0.0561383,0.0090497 -0.0965904,0.0117646l0 0.0525184 0.881983 0c0.00331822,-0.0114629 0.00723976,-0.0265759 0.0117646,-0.0452786 0.00452485,-0.0190044 0.00935135,-0.0395472 0.0145097,-0.0621714 0.00512816,-0.0223527 0.00995467,-0.044977 0.0147812,-0.0679331 0.0048265,-0.0229259 0.00935135,-0.0440419 0.0132729,-0.0636797 0.00361988,-0.0196077 0.0069381,-0.0359273 0.0090497,-0.0488985l-0.0543283 -0.0090497z"/>
   <path id="_2879348241234567" class="fil0" d="M17.8347 2.98749l-0.429227 0 0 0.0525184c0.0419604,0.0021116 0.0754443,0.0069381 0.100512,0.0141779 0.0247358,0.00723976 0.043167,0.0187329 0.0552333,0.034419 0.0117646,0.0153845 0.0190044,0.0368323 0.0217193,0.0636797 0.0018401,0.0172246 0.0039517,0.0386422 0.00576164,0.0643132 0.00180994,0.0256408 0.00361988,0.0576466 0.0048265,0.0959871 0.00150828,0.0383104 0.0021116,0.0850973 0.0021116,0.140331l0 0.421987 -0.00542982 0 -0.744368 -0.887413 -0.278881 0 0 0.0525184c0.0274507,0.0021116 0.0510101,0.00573147 0.0703161,0.010558 0.0193362,0.00452485 0.0359273,0.0114629 0.0501051,0.0205428 0.0141779,0.0090497 0.0271793,0.0208143 0.0389439,0.0358971 0.00814473,0.00998483 0.0144795,0.0193362 0.019306,0.0283859 0.0048265,0.00874804 0.0087782,0.019306 0.0111915,0.0314024 0.00241325,0.0120663 0.00392153,0.0280541 0.0048265,0.0476919 0.000603313,0.0196077 0.00090497,0.0455803 0.00090497,0.0772542l0 0.394808c0,0.05463 -0.000603313,0.101417 -0.0021116,0.140662 -0.00120663,0.0389439 -0.00301657,0.0721562 -0.0048265,0.0990037 -0.00180994,0.0271793 -0.00392153,0.0498035 -0.00576164,0.0682347 -0.00271491,0.0286574 -0.0102563,0.0513118 -0.0220209,0.0676012 -0.0114629,0.0162895 -0.0286875,0.0280541 -0.0507085,0.0356256 -0.0223226,0.00754141 -0.0504068,0.0123679 -0.0848258,0.0144795l0 0.0525184 0.432847 0 0 -0.0525184c-0.0419604,-0.0021116 -0.0751426,-0.0069381 -0.0999086,-0.0144795 -0.0247358,-0.00757158 -0.0428654,-0.0199395 -0.0543283,-0.0368323 -0.0117646,-0.0168928 -0.0187027,-0.0401505 -0.0214176,-0.0700446 -0.0018401,-0.0171944 -0.00365004,-0.0392153 -0.00515833,-0.0654896 -0.00180994,-0.0265458 -0.00301657,-0.0594565 -0.00422319,-0.0984004 -0.00090497,-0.0389439 -0.00150828,-0.0857308 -0.00150828,-0.140361l0 -0.445517 0.00361988 0 0.767897 0.941742 0.0615681 0 0 -0.729858c0,-0.0552333 0.000603313,-0.10202 0.00150828,-0.140331 0.00120663,-0.0386422 0.00241325,-0.0709496 0.00422319,-0.0971937 0.00150828,-0.0262743 0.00331822,-0.0482952 0.00515833,-0.0667264 0.00271491,-0.0262441 0.00995467,-0.0470886 0.0208143,-0.0624731 0.0111613,-0.0150828 0.0274809,-0.0262743 0.0488985,-0.033514 0.021116,-0.0069381 0.0488985,-0.0111613 0.0824126,-0.0126696l0 -0.0525184z"/>
   <path id="_28793482412345678" class="fil0" d="M17.9506 2.98749l0 0.0543283c0.0346905,0.00241325 0.0621714,0.00542982 0.0829857,0.00965301 0.0205428,0.00452485 0.0359273,0.0120964 0.0461836,0.0229561 0.0102563,0.0108596 0.0172246,0.0274507 0.0202412,0.0498035 0.00331822,0.0223226 0.0048265,0.0528201 0.00452485,0.0914623l0 0.720778c0.000301657,0.0380389 -0.00120663,0.0685364 -0.0048265,0.0908589 -0.00365004,0.0223527 -0.0111915,0.0392455 -0.0223527,0.0507085 -0.0111613,0.0111613 -0.0280541,0.0190345 -0.0507085,0.023861 -0.0226242,0.00452485 -0.0528201,0.00784307 -0.0905573,0.0102563l0 0.0525184 0.434657 0c0.111673,0.000301657 0.212789,-0.0120663 0.303346,-0.0365306 0.0908589,-0.0244342 0.170255,-0.0624731 0.238158,-0.113785 0.0461836,-0.0350223 0.0857308,-0.0763794 0.118943,-0.12377 0.0331822,-0.0473902 0.0588532,-0.101115 0.0766509,-0.161175 0.0178279,-0.0600598 0.0268776,-0.126153 0.0271793,-0.198611 -0.000301657,-0.0567416 -0.0069381,-0.10926 -0.0202412,-0.157254 -0.0132729,-0.0479936 -0.0313723,-0.0914623 -0.0543283,-0.130406 -0.0229259,-0.0389439 -0.0495018,-0.0727294 -0.0793658,-0.101719 -0.0561684,-0.0531217 -0.127088,-0.0920656 -0.21312,-0.117103 -0.0857308,-0.024766 -0.186243,-0.0371339 -0.301234,-0.0368323l-0.516134 0zm0.32416 0.188354c0,-0.0220511 0.000603313,-0.0398488 0.0021116,-0.0534234 0.00150828,-0.0133031 0.00392153,-0.023861 0.00723976,-0.0314024 0.00361988,-0.00784307 0.00814473,-0.0138762 0.014208,-0.018401 0.00814473,-0.00663644 0.0235292,-0.0117948 0.0461836,-0.0157163 0.0226242,-0.00392153 0.0525184,-0.00603313 0.0896222,-0.00603313 0.0609949,-0.000301657 0.117133,0.00633479 0.168747,0.0196378 0.0516134,0.0132729 0.0971937,0.0337855 0.137344,0.0618698 0.0446753,0.0280541 0.0817791,0.063378 0.111673,0.106243 0.0298942,0.0428654 0.0522167,0.0911606 0.0669979,0.145489 0.015113,0.0540267 0.0223527,0.111975 0.0223527,0.173875 0,0.0742377 -0.00995467,0.143679 -0.0298942,0.208565 -0.0199093,0.0648863 -0.0501051,0.121628 -0.089954,0.17113 -0.0401505,0.0492002 -0.0902556,0.0878424 -0.150617,0.115625 -0.0603615,0.0277524 -0.130678,0.0419604 -0.21128,0.0425637 -0.0434687,0.000301657 -0.078491,-0.00452485 -0.105942,-0.0145097 -0.0271793,-0.00995467 -0.0470886,-0.0274507 -0.0597582,-0.0525184 -0.0130014,-0.0250375 -0.0190345,-0.0600598 -0.0190345,-0.105037l0 -0.747957z"/>
  </g>
  <g id="_279758776">
   <path id="_279932592" class="fil2" d="M1.43486 0.428805c0.792331,0 1.43486,0.642528 1.43486,1.43486 0,0.792331 -0.642528,1.43486 -1.43486,1.43486 -0.792331,0 -1.43486,-0.642528 -1.43486,-1.43486 0,-0.792331 0.642528,-1.43486 1.43486,-1.43486z"/>
   <path id="_279934368" class="fil3" d="M2.26224 1.58406c0.792331,0 1.43486,0.642528 1.43486,1.43486 0,0.792331 -0.642528,1.43486 -1.43486,1.43486 -0.792331,0 -1.43486,-0.642528 -1.43486,-1.43486 0,-0.792331 0.642528,-1.43486 1.43486,-1.43486z"/>
   <path id="_279750256" class="fil2" d="M3.05427 0c0.792331,0 1.43486,0.642528 1.43486,1.43486 0,0.792331 -0.642528,1.43486 -1.43486,1.43486 -0.792331,0 -1.43486,-0.642528 -1.43486,-1.43486 0,-0.792331 0.642528,-1.43486 1.43486,-1.43486z"/>
   <path id="_279750400" class="fil4" d="M3.87122 0.940535c0.792331,0 1.43486,0.642528 1.43486,1.43486 0,0.792331 -0.642528,1.43486 -1.43486,1.43486 -0.792331,0 -1.43486,-0.642528 -1.43486,-1.43486 0,-0.792331 0.642528,-1.43486 1.43486,-1.43486z"/>
  </g>
 </g>
</svg>
