<?xml version="1.0" encoding="UTF-8"?>
<!DOCTYPE svg PUBLIC "-//W3C//DTD SVG 1.1//EN" "http://www.w3.org/Graphics/SVG/1.1/DTD/svg11.dtd">
<!-- Creator: CorelDRAW -->
<svg xmlns="http://www.w3.org/2000/svg" xml:space="preserve" width="31.8631mm" height="13.1117mm" style="shape-rendering:geometricPrecision; text-rendering:geometricPrecision; image-rendering:optimizeQuality; fill-rule:evenodd; clip-rule:evenodd"
viewBox="0 0 5.63128 2.31728"
 xmlns:xlink="http://www.w3.org/1999/xlink">
 <defs>
  <style type="text/css">
   <![CDATA[
    .fil4 {fill:#75C5F0}
    .fil3 {fill:white;fill-rule:nonzero}
    .fil1 {fill:#007CC3;fill-opacity:0.501961}
    .fil2 {fill:#0093DD;fill-opacity:0.501961}
    .fil0 {fill:#75C5F0;fill-opacity:0.501961}
   ]]>
  </style>
 </defs>
 <g id="Layer_x0020_1">
  <metadata id="CorelCorpID_0Corel-Layer"/>
  <g id="_279933144">
   <g>
    <path id="_279929016" class="fil0" d="M0.74654 0.223108c0.412248,0 0.746558,0.334309 0.746558,0.74654 0,0.412248 -0.334309,0.746558 -0.746558,0.746558 -0.412231,0 -0.74654,-0.334309 -0.74654,-0.746558 0,-0.412231 0.334309,-0.74654 0.74654,-0.74654z"/>
    <path id="_279929520" class="fil1" d="M1.17703 0.824179c0.412248,0 0.746558,0.334309 0.746558,0.746558 0,0.412231 -0.334309,0.74654 -0.746558,0.74654 -0.412248,0 -0.74654,-0.334309 -0.74654,-0.74654 0,-0.412248 0.334291,-0.746558 0.74654,-0.746558z"/>
    <path id="_279926688" class="fil0" d="M1.58912 0c0.412248,0 0.746558,0.334309 0.746558,0.746558 0,0.412248 -0.334309,0.74654 -0.746558,0.74654 -0.412248,0 -0.74654,-0.334291 -0.74654,-0.74654 0,-0.412248 0.334291,-0.746558 0.74654,-0.746558z"/>
    <path id="_279764320" class="fil2" d="M2.01418 0.489357c0.412231,0 0.74654,0.334309 0.74654,0.746558 0,0.412231 -0.334309,0.74654 -0.74654,0.74654 -0.412248,0 -0.746558,-0.334309 -0.746558,-0.74654 0,-0.412248 0.334309,-0.746558 0.746558,-0.746558z"/>
   </g>
   <path id="_306716504" class="fil3" d="M3.33293 0.865588c-0.0165069,-0.0050369 -0.0345514,-0.0100738 -0.0539744,-0.0151107 -0.0208722,-0.00533735 -0.0427518,-0.00966732 -0.0659216,-0.0134848 -0.0234172,-0.00357002 -0.0475943,-0.00533735 -0.0725314,-0.00560245 -0.0501393,0.0002651 -0.0949412,0.00765256 -0.134388,0.0218973 -0.039712,0.0142447 -0.073309,0.034357 -0.101056,0.0595592 -0.0277295,0.0254496 -0.0486194,0.0547167 -0.0633589,0.0880663 -0.0145275,0.0330845 -0.0218973,0.068714 -0.0218973,0.106888 0.000247427,0.033597 0.00560245,0.0636417 0.0160297,0.0903638 0.0104273,0.0267221 0.0244422,0.0506518 0.0419919,0.0720189 0.0178147,0.0211373 0.0376619,0.0399771 0.0598243,0.0567668 0.0218796,0.0168074 0.0447843,0.0320771 0.0684665,0.0455619 0.0236646,0.0135024 0.0465693,0.0262096 0.068714,0.0376619 0.037927,0.0201123 0.071524,0.040472 0.100544,0.0613619 0.029002,0.0208545 0.0516769,0.0442717 0.0682014,0.0702339 0.0165423,0.0262096 0.0249548,0.0570142 0.0252022,0.0929088 0,0.0363894 -0.00712236,0.067954 -0.0211196,0.0944287 -0.014015,0.0267221 -0.0341096,0.0473292 -0.0605842,0.0621041 -0.0262096,0.0145098 -0.0580393,0.0218796 -0.0954361,0.0221447 -0.0310697,-0.0002651 -0.0590643,-0.00611498 -0.083754,-0.0170548 -0.0246897,-0.0112049 -0.0463042,-0.0259621 -0.0654091,-0.0443071 -0.0188398,-0.0185747 -0.0351169,-0.0389344 -0.0488668,-0.0610791 -0.0134848,-0.022127 -0.0249371,-0.0445368 -0.0340919,-0.066929 -0.00917247,-0.0226572 -0.0162948,-0.043282 -0.0214024,-0.0626167l-0.0458093 0.0122123c0.00229754,0.0198648 0.00535502,0.0417444 0.00865994,0.0659216 0.00330492,0.0239297 0.00687493,0.0478594 0.0109398,0.0712766 0.00383512,0.0236646 0.00763489,0.0448019 0.0114523,0.0631115 0.00357002,0.0185747 0.00712236,0.0323422 0.0101975,0.0409845 0.00814741,0.00381744 0.0185747,0.00865994 0.0310344,0.0142447 0.0127425,0.00560245 0.0287722,0.0117174 0.0483719,0.0178147 0.0190872,0.0063624 0.0412319,0.0117174 0.066169,0.0160297 0.0252022,0.00434764 0.0529493,0.00662751 0.0834889,0.00687493 0.0385456,-0.000176733 0.0745462,-0.00447136 0.107878,-0.0128839l0 0.000689261 0.410552 0 0 -0.0442541c-0.0300093,-0.00203243 -0.0539214,-0.00508992 -0.0717361,-0.00890737 -0.0180445,-0.00406487 -0.0315293,-0.0109398 -0.040684,-0.0206071 -0.00890737,-0.00964965 -0.0150223,-0.0241595 -0.0178147,-0.0432467 -0.00305749,-0.0190695 -0.00432997,-0.0447489 -0.00406487,-0.0768084l0 -0.239615 0.0442541 0c0.024672,0 0.0445192,0.00203243 0.0600364,0.0063624 0.0152698,0.0043123 0.0279769,0.0111872 0.0381568,0.020342 0.0101798,0.00915479 0.0195821,0.021102 0.0284894,0.0358592 0.0147572,0.0251845 0.0302744,0.0516415 0.0465516,0.079371 0.0162772,0.0279769 0.0328017,0.0557064 0.0498565,0.0834359 0.0170548,0.0274644 0.0343393,0.053674 0.0516415,0.0783459 0.0165246,0.0244246 0.0335617,0.045014 0.0506165,0.0620688 0.0173022,0.0170371 0.0356118,0.0310344 0.0557064,0.0419742 0.0198472,0.0109221 0.0422216,0.0190695 0.0674061,0.0249194 0.0249371,0.00584988 0.0534265,0.00966732 0.0857157,0.0114523 0.00841251,0.000759954 0.0170548,0.00127248 0.0259621,0.00127248 0.00890737,0.000247427 0.0175496,0.000247427 0.0259445,0.000247427l0.00611498 -0.0411966c-0.0165423,-0.0048425 -0.0335794,-0.0127248 -0.0511467,-0.0231521 -0.0172845,-0.0104449 -0.0358592,-0.0262096 -0.0557064,-0.0470641 -0.0119472,-0.0129722 -0.023912,-0.0267044 -0.0356118,-0.0412142 -0.0119472,-0.0144921 -0.024672,-0.0315469 -0.0386516,-0.0508639 -0.0137322,-0.0193346 -0.0297619,-0.0424867 -0.0478241,-0.0697037 -0.0114523,-0.0172845 -0.0236646,-0.0361243 -0.0366368,-0.0564663 -0.0129722,-0.0200946 -0.0254319,-0.0404543 -0.0378917,-0.0607963 -0.0124774,-0.0201123 -0.023912,-0.0391818 -0.034357,-0.0564663 -0.0101622,-0.0175673 -0.0188221,-0.032572 -0.0254319,-0.0445192 0.0373968,-0.0160297 0.0707111,-0.0361243 0.099713,-0.0597889 0.029002,-0.023912 0.0519066,-0.0524015 0.0686963,-0.0854683 0.0165246,-0.0330668 0.0251668,-0.0717361 0.0254319,-0.115743 0,-0.0305219 -0.00432997,-0.0584988 -0.0129899,-0.0836833 -0.00839484,-0.0254319 -0.020342,-0.047559 -0.0355941,-0.0671587 -0.0152698,-0.0195821 -0.0330668,-0.0358592 -0.053674,-0.0490789 -0.0190872,-0.0127248 -0.0407017,-0.0229047 -0.0643663,-0.0305395 -0.0238944,-0.00761721 -0.0508816,-0.0129722 -0.081156,-0.0165246 -0.0302568,-0.00332259 -0.0648435,-0.0048425 -0.103265,-0.0048425l-0.229807 0zm-0.0265984 0.505334c-0.0213494,-0.0177971 -0.0444661,-0.0339682 -0.0693679,-0.0485487 -0.0310521,-0.0183273 -0.0628641,-0.035382 -0.0949412,-0.0511643 -0.0407194,-0.0203597 -0.0755889,-0.0409845 -0.104096,-0.0615916 -0.0287722,-0.0203597 -0.0506518,-0.0435295 -0.0656742,-0.0689791 -0.0150223,-0.0254496 -0.0226572,-0.0557417 -0.0226572,-0.0908587 0,-0.0211196 0.00332259,-0.0417444 0.0101798,-0.0613442 0.00662751,-0.0195997 0.0168074,-0.0371494 0.0305572,-0.0526842 0.0134848,-0.0155349 0.0308046,-0.0279946 0.0514118,-0.0369019 0.0206071,-0.00915479 0.0450494,-0.0137499 0.0727965,-0.014015 0.0510053,0.000406487 0.0542572,0.023046 0.100897,0.0285778 0.0152344,0.0102329 0.0283657,0.0225158 0.0393409,0.0368489 0.0152698,0.0195997 0.0277472,0.041497 0.0374145,0.0654091 0.00521364,0.0127778 0.00991475,0.025697 0.0141387,0.03874l0 0.00042416 0 0.316088zm0.140415 0.00289843l0 -0.376972c0,-0.0195821 0.00125481,-0.0343393 0.00357002,-0.0442717 0.00252729,-0.00991475 0.00634473,-0.0170371 0.0116821,-0.0213494 0.00611498,-0.0045774 0.0157823,-0.00839484 0.029002,-0.0112049 0.0132373,-0.00252729 0.0305395,-0.00406487 0.0519066,-0.00406487 0.0277118,-0.000247427 0.0544339,0.00381744 0.080131,0.0119472 0.0254319,0.00839484 0.0483189,0.0213847 0.0686786,0.0391818 0.020342,0.0177971 0.0363541,0.0412142 0.0483189,0.0699511 0.0116998,0.0287545 0.0178147,0.0635887 0.0180622,0.104803 0.000247427,0.0409668 -0.00611498,0.0770735 -0.019317,0.108355 -0.0129899,0.0310344 -0.033597,0.0580039 -0.0615739,0.0809086 -0.0188221,0.0150047 -0.0414617,0.0259445 -0.0679187,0.0328017 -0.0264393,0.00687493 -0.0582514,0.0101798 -0.0953831,0.00991475l-0.0671587 0z"/>
   <g>
    <circle id="_279749104" class="fil4" cx="4.24924" cy="1.801" r="0.0638017"/>
    <circle id="_279760216" class="fil4" cx="4.5788" cy="1.801" r="0.0638017"/>
    <circle id="_342525824" class="fil4" cx="4.90834" cy="1.801" r="0.0638017"/>
    <circle id="_279749392" class="fil4" cx="5.23791" cy="1.801" r="0.0638017"/>
    <circle id="_279749320" class="fil4" cx="5.56747" cy="1.801" r="0.0638017"/>
   </g>
  </g>
 </g>
</svg>
