<?xml version="1.0" encoding="UTF-8"?>
<!DOCTYPE svg PUBLIC "-//W3C//DTD SVG 1.1//EN" "http://www.w3.org/Graphics/SVG/1.1/DTD/svg11.dtd">
<!-- Creator: CorelDRAW -->
<svg xmlns="http://www.w3.org/2000/svg" xml:space="preserve" width="9.1273mm" height="6.3687mm" style="shape-rendering:geometricPrecision; text-rendering:geometricPrecision; image-rendering:optimizeQuality; fill-rule:evenodd; clip-rule:evenodd"
viewBox="0 0 0.561084 0.391504"
 xmlns:xlink="http://www.w3.org/1999/xlink">
 <defs>
  <style type="text/css">
   <![CDATA[
    .fil0 {fill:white;fill-rule:nonzero}
   ]]>
  </style>
 </defs>
 <g id="Layer_x0020_1">
  <metadata id="CorelCorpID_0Corel-Layer"/>
  <path class="fil0" d="M0.215322 0.0938449c-0.00153683,-0.0121901 -0.0029753,-0.0231262 -0.00422321,-0.0327222 -0.00124176,-0.0094976 -0.00239745,-0.0182329 -0.00345479,-0.0260031 -0.00105119,-0.00777635 -0.00191796,-0.0150671 -0.00268638,-0.0218783 -0.0065223,-0.00201632 -0.0137208,-0.00403264 -0.021491,-0.00604896 -0.00786856,-0.00201017 -0.0161183,-0.00364536 -0.0248536,-0.00508383 -0.00882754,-0.00134011 -0.017944,-0.00201632 -0.0273494,-0.00210853 -0.018903,9.22097e-005 -0.0357897,0.00287694 -0.05066,0.0082497 -0.0149687,0.00537275 -0.0276383,0.0129524 -0.0380949,0.0224561 -0.0104627,0.00959596 -0.0183313,0.0206304 -0.0238946,0.0332016 -0.00547111,0.0124729 -0.0082497,0.0259048 -0.0082497,0.0402957 9.22097e-005,0.0126696 0.00210853,0.023993 0.00604281,0.0340684 0.00393428,0.0100754 0.00921483,0.0190936 0.0158355,0.0271527 0.00671287,0.00796692 0.0142003,0.0150671 0.0225484,0.0213988 0.0082497,0.00633173 0.0168867,0.0120918 0.0258126,0.0171756 0.00891975,0.00508383 0.0175567,0.00988488 0.0259048,0.0142003 0.0142987,0.00758579 0.0269621,0.0152576 0.0379043,0.0231262 0.0109361,0.00786856 0.0194808,0.0166961 0.0257142,0.0264826 0.00623952,0.00988488 0.00940539,0.0214972 0.00950375,0.0350274 0,0.0137208 -0.00268638,0.025622 -0.00796692,0.0355991 -0.00528054,0.0100754 -0.0128602,0.0178457 -0.0228373,0.0234151 -0.00988488,0.00546496 -0.0218783,0.0082497 -0.0359864,0.00834805 -0.0117045,-9.8357e-005 -0.0222594,-0.00230524 -0.0315665,-0.00643009 -0.00930704,-0.00422321 -0.0174645,-0.00978653 -0.024663,-0.0166961 -0.00710015,-0.00700794 -0.0132413,-0.0146859 -0.0184235,-0.023034 -0.00508383,-0.00834805 -0.00939924,-0.0167883 -0.012854,-0.0252347 -0.00345479,-0.00853862 -0.00614117,-0.0163088 -0.00805913,-0.0236057l-0.017274 0.00461049c0.000860624,0.00748128 0.00201632,0.0157371 0.00326422,0.0248474 0.0012479,0.00902426 0.00258802,0.0180424 0.00412485,0.0268699 0.00143847,0.0089259 0.00287694,0.0168867 0.00431542,0.0237963 0.00134626,0.00700794 0.00268638,0.0121901 0.00384207,0.0154482 0.00306751,0.00143847 0.00700179,0.00326422 0.0117045,0.00537275 0.00479491,0.00211468 0.0108439,0.00441377 0.0182329,0.00671902 0.00719236,0.00239745 0.0155404,0.00441377 0.0249458,0.00604281 0.0094976,0.00163519 0.0199603,0.00249581 0.0314743,0.00259417 0.0194808,-9.8357e-005 0.0372281,-0.0029753 0.053162,-0.00863698 0.0158293,-0.00566168 0.0295501,-0.0134319 0.0410641,-0.0235073 0.0114217,-0.0100754 0.0202493,-0.0217861 0.0264888,-0.0351196 0.00623338,-0.0133397 0.00930704,-0.0278289 0.00939924,-0.0432771 -0.000190567,-0.0157371 -0.00316587,-0.0295563 -0.00891975,-0.0413591 -0.00585839,-0.0117045 -0.0135302,-0.0220689 -0.0232246,-0.0308964 -0.00968817,-0.00882754 -0.0204398,-0.0166961 -0.0322427,-0.0236057 -0.0117045,-0.00690958 -0.0236979,-0.0133397 -0.0357897,-0.0192841 -0.0153498,-0.007678 -0.028499,-0.0154482 -0.0392445,-0.0232246 -0.0108439,-0.007678 -0.0190936,-0.0164072 -0.0247552,-0.0260031 -0.00566168,-0.00959596 -0.00854477,-0.0210115 -0.00854477,-0.0342528 0,-0.00796692 0.0012479,-0.0157371 0.00384207,-0.0231262 0.00249581,-0.00738907 0.00633173,-0.0140097 0.0115139,-0.019862 0.00508383,-0.00585839 0.0116123,-0.0105549 0.0193825,-0.0139175 0.00777021,-0.00345479 0.016985,-0.00518219 0.0274416,-0.0052744 0.0122823,9.22097e-005 0.0227451,0.00239745 0.031382,0.00681123 0.00863083,0.00451213 0.0158293,0.0104566 0.021491,0.0178457 0.00576003,0.00738907 0.0104566,0.0156449 0.0141081,0.024663 0.00364536,0.0089259 0.00662066,0.0180362 0.00901811,0.027251l0.0178457 -0.00287694z"/>
  <path class="fil0" d="M0.561084 0.37597c-0.00623338,-0.00182575 -0.0126573,-0.00479491 -0.0192718,-0.00872919 -0.0065223,-0.00393428 -0.0135241,-0.00987874 -0.0210054,-0.0177412 -0.00450598,-0.00489326 -0.00901196,-0.0100693 -0.0134257,-0.0155343 -0.00450598,-0.00547111 -0.00930089,-0.0118951 -0.0145753,-0.0191796 -0.00517604,-0.00729072 -0.0112189,-0.0160199 -0.0180301,-0.0262798 -0.00431542,-0.0065223 -0.00891975,-0.0136163 -0.0138069,-0.0212882 -0.00489326,-0.00757349 -0.00958981,-0.0152453 -0.0142925,-0.0229172 -0.00469655,-0.00757964 -0.00901196,-0.014772 -0.0129462,-0.0212943 -0.00383592,-0.00661451 -0.007094,-0.0122762 -0.00958981,-0.0167822 0.0140958,-0.00604281 0.0266609,-0.0136163 0.0375908,-0.0225361 0.0109361,-0.00901196 0.0195669,-0.0197513 0.0258986,-0.0322181 0.00623338,-0.0124668 0.00949145,-0.0270482 0.00958981,-0.0436336 0,-0.0115139 -0.00163519,-0.0220627 -0.00489326,-0.0315542 -0.00316587,-0.00958981 -0.00767185,-0.0179317 -0.0134257,-0.0253146 -0.00575389,-0.00738907 -0.0124668,-0.0135241 -0.020237,-0.0185096 -0.00719236,-0.00479491 -0.0153437,-0.00863083 -0.0242635,-0.0115078 -0.00901196,-0.00287694 -0.0191796,-0.00489326 -0.030589,-0.00623338 -0.0114094,-0.0012479 -0.024454,-0.00182575 -0.0389371,-0.00182575l-0.145575 0 0 0.01669c0.0110283,0.000768414 0.0197575,0.00181961 0.026372,0.00316587 0.0065223,0.00143847 0.0114156,0.00383592 0.0146736,0.00728457 0.00326422,0.003547 0.00546496,0.00872919 0.00642394,0.015731 0.00105734,0.00699564 0.00153683,0.0164932 0.00143847,0.0284805l0 0.229584c9.8357e-005,0.0120795 -0.000381134,0.0217676 -0.00153068,0.02896 -0.00105734,0.00719236 -0.00335643,0.0126573 -0.00681123,0.0163027 -0.00344864,0.00364536 -0.00853247,0.00623338 -0.0154421,0.00777021 -0.00690343,0.00143847 -0.0160138,0.00258802 -0.0274232,0.00335643l0 0.0166838 0.154783 0 0 -0.0166838c-0.0113172,-0.000768414 -0.0203353,-0.00191796 -0.0270482,-0.00335643 -0.00680508,-0.00153683 -0.0118889,-0.00412485 -0.0153437,-0.00777021 -0.00335643,-0.00364536 -0.00565553,-0.00911032 -0.00671287,-0.0163027 -0.00114955,-0.00719236 -0.00162904,-0.0168805 -0.00153068,-0.02896l0 -0.0903409 0.0166838 0c0.00930089,0 0.0167822,0.000768414 0.0226344,0.00239745 0.00575389,0.00163519 0.0105488,0.00422321 0.0143847,0.00767185 0.00383592,0.00345479 0.00738293,0.00796077 0.0107394,0.0135241 0.00556332,0.00949145 0.0114094,0.0194685 0.0175506,0.029919 0.00613502,0.0105488 0.0123684,0.0210054 0.0187923,0.0314558 0.00643009,0.0103582 0.0129462,0.020237 0.0194685,0.0295378 0.00623338,0.00920868 0.0126573,0.0169727 0.0190874,0.0233967 0.00651615,0.00643009 0.0134257,0.0117045 0.0209992,0.0158232 0.00748128,0.00412485 0.0159215,0.00719236 0.025413,0.00939924 0.00939924,0.00220689 0.0201386,0.00364536 0.0323164,0.00431542 0.00316587,0.000288924 0.00643009,0.000479491 0.00978653,0.000479491 0.00335643,9.8357e-005 0.00661451,9.8357e-005 0.00978038,9.8357e-005l0.0022991 -0.0155343zm-0.239936 -0.171473l0 -0.14212c0,-0.00738293 0.000479491,-0.0129462 0.00134011,-0.0166838 0.000958981,-0.00374371 0.00239745,-0.00643009 0.00441377,-0.00805913 0.0022991,-0.0017274 0.00594445,-0.00316587 0.0109299,-0.00421706 0.00498547,-0.000958981 0.0115078,-0.00153683 0.0195608,-0.00153683 0.0104566,-9.22097e-005 0.0205259,0.00143847 0.0302141,0.00450598 0.00958981,0.00316587 0.0182206,0.00805913 0.0258925,0.014772 0.00767185,0.00671287 0.0137085,0.0155343 0.0182206,0.026372 0.00440762,0.0108377 0.00671287,0.0239745 0.00680508,0.0395088 9.8357e-005,0.0154421 -0.0022991,0.0290584 -0.00728457,0.0408551 -0.00489326,0.0116983 -0.0126635,0.021866 -0.0232123,0.0304968 -0.007094,0.00565553 -0.0156265,0.00978038 -0.0256036,0.0123684 -0.00997095,0.00258802 -0.0219582,0.00383592 -0.0359618,0.00373757l-0.0253146 0z"/>
 </g>
</svg>
